OFF
1522 3040 0
0.0402333 0 0.498379 
0.0397379 0.00629387 0.498379 
0 0 0.5 
0.0382641 0.0124328 0.498379 
0.0358481 0.0182655 0.498379 
0.0325494 0.0236485 0.498379 
0.0284492 0.0284492 0.498379 
0.0236485 0.0325494 0.498379 
0.0182655 0.0358481 0.498379 
0.0124328 0.0382641 0.498379 
0.00629387 0.0397379 0.498379 
2.46358e-18 0.0402333 0.498379 
-0.00629387 0.0397379 0.498379 
-0.0124328 0.0382641 0.498379 
-0.0182655 0.0358481 0.498379 
-0.0236485 0.0325494 0.498379 
-0.0284492 0.0284492 0.498379 
-0.0325494 0.0236485 0.498379 
-0.0358481 0.0182655 0.498379 
-0.0382641 0.0124328 0.498379 
-0.0397379 0.00629387 0.498379 
-0.0402333 4.92716e-18 0.498379 
-0.0397379 -0.00629387 0.498379 
-0.0382641 -0.0124328 0.498379 
-0.0358481 -0.0182655 0.498379 
-0.0325494 -0.0236485 0.498379 
-0.0284492 -0.0284492 0.498379 
-0.0236485 -0.0325494 0.498379 
-0.0182655 -0.0358481 0.498379 
-0.0124328 -0.0382641 0.498379 
-0.00629387 -0.0397379 0.498379 
-7.39073e-18 -0.0402333 0.498379 
0.00629387 -0.0397379 0.498379 
0.0124328 -0.0382641 0.498379 
0.0182655 -0.0358481 0.498379 
0.0236485 -0.0325494 0.498379 
0.0284492 -0.0284492 0.498379 
0.0325494 -0.0236485 0.498379 
0.0358481 -0.0182655 0.498379 
0.0382641 -0.0124328 0.498379 
0.0397379 -0.00629387 0.498379 
0.0402333 0 -0.498379 
0 0 -0.5 
0.0397379 0.00629387 -0.498379 
0.0382641 0.0124328 -0.498379 
0.0358481 0.0182655 -0.498379 
0.0325494 0.0236485 -0.498379 
0.0284492 0.0284492 -0.498379 
0.0236485 0.0325494 -0.498379 
0.0182655 0.0358481 -0.498379 
0.0124328 0.0382641 -0.498379 
0.00629387 0.0397379 -0.498379 
2.46358e-18 0.0402333 -0.498379 
-0.00629387 0.0397379 -0.498379 
-0.0124328 0.0382641 -0.498379 
-0.0182655 0.0358481 -0.498379 
-0.0236485 0.0325494 -0.498379 
-0.0284492 0.0284492 -0.498379 
-0.0325494 0.0236485 -0.498379 
-0.0358481 0.0182655 -0.498379 
-0.0382641 0.0124328 -0.498379 
-0.0397379 0.00629387 -0.498379 
-0.0402333 4.92716e-18 -0.498379 
-0.0397379 -0.00629387 -0.498379 
-0.0382641 -0.0124328 -0.498379 
-0.0358481 -0.0182655 -0.498379 
-0.0325494 -0.0236485 -0.498379 
-0.0284492 -0.0284492 -0.498379 
-0.0236485 -0.0325494 -0.498379 
-0.0182655 -0.0358481 -0.498379 
-0.0124328 -0.0382641 -0.498379 
-0.00629387 -0.0397379 -0.498379 
-7.39073e-18 -0.0402333 -0.498379 
0.00629387 -0.0397379 -0.498379 
0.0124328 -0.0382641 -0.498379 
0.0182655 -0.0358481 -0.498379 
0.0236485 -0.0325494 -0.498379 
0.0284492 -0.0284492 -0.498379 
0.0325494 -0.0236485 -0.498379 
0.0358481 -0.0182655 -0.498379 
0.0382641 -0.0124328 -0.498379 
0.0397379 -0.00629387 -0.498379 
0.0802056 0 0.493525 
0.0792182 0.0125469 0.493525 
0.119658 0 0.485471 
0.118185 0.0187186 0.485471 
0.158334 0 0.474268 
0.156385 0.0247689 0.474268 
0.195983 0 0.45999 
0.19357 0.0306585 0.45999 
0.232362 0 0.442728 
0.229501 0.0363494 0.442728 
0.267233 0 0.422595 
0.263943 0.0418044 0.422595 
0.300371 0 0.399721 
0.296673 0.0469884 0.399721 
0.331561 0 0.374255 
0.327479 0.0518676 0.374255 
0.360601 0 0.346362 
0.356162 0.0564105 0.346362 
0.387302 0 0.316223 
0.382534 0.0605875 0.316223 
0.411492 0 0.284032 
0.406426 0.0643715 0.284032 
0.433013 0 0.25 
0.427682 0.0677381 0.25 
0.451725 0 0.214346 
0.446164 0.0706654 0.214346 
0.467508 0 0.177302 
0.461752 0.0731344 0.177302 
0.480259 0 0.139109 
0.474346 0.0751291 0.139109 
0.489895 0 0.100013 
0.483864 0.0766365 0.100013 
0.496354 0 0.0602683 
0.490243 0.0776469 0.0602683 
0.499595 0 0.020133 
0.493444 0.0781538 0.020133 
0.499595 0 -0.020133 
0.493444 0.0781538 -0.020133 
0.496354 0 -0.0602683 
0.490243 0.0776469 -0.0602683 
0.489895 0 -0.100013 
0.483864 0.0766365 -0.100013 
0.480259 0 -0.139109 
0.474346 0.0751291 -0.139109 
0.467508 0 -0.177302 
0.461752 0.0731344 -0.177302 
0.451725 0 -0.214346 
0.446164 0.0706654 -0.214346 
0.433013 0 -0.25 
0.427682 0.0677381 -0.25 
0.411492 0 -0.284032 
0.406426 0.0643715 -0.284032 
0.387302 0 -0.316223 
0.382534 0.0605875 -0.316223 
0.360601 0 -0.346362 
0.356162 0.0564105 -0.346362 
0.331561 0 -0.374255 
0.327479 0.0518676 -0.374255 
0.300371 0 -0.399721 
0.296673 0.0469884 -0.399721 
0.267233 0 -0.422595 
0.263943 0.0418044 -0.422595 
0.232362 0 -0.442728 
0.229501 0.0363494 -0.442728 
0.195983 0 -0.45999 
0.19357 0.0306585 -0.45999 
0.158334 0 -0.474268 
0.156385 0.0247689 -0.474268 
0.119658 0 -0.485471 
0.118185 0.0187186 -0.485471 
0.0802056 0 -0.493525 
0.0792182 0.0125469 -0.493525 
0.0762801 0.0247849 0.493525 
0.113801 0.0369763 0.485471 
0.150585 0.0489279 0.474268 
0.186391 0.0605622 0.45999 
0.220989 0.0718037 0.442728 
0.254154 0.0825795 0.422595 
0.28567 0.0928198 0.399721 
0.315334 0.102458 0.374255 
0.342952 0.111432 0.346362 
0.368347 0.119683 0.316223 
0.391352 0.127158 0.284032 
0.41182 0.133808 0.25 
0.429616 0.139591 0.214346 
0.444627 0.144468 0.177302 
0.456753 0.148408 0.139109 
0.465918 0.151386 0.100013 
0.472061 0.153382 0.0602683 
0.475143 0.154383 0.020133 
0.475143 0.154383 -0.020133 
0.472061 0.153382 -0.0602683 
0.465918 0.151386 -0.100013 
0.456753 0.148408 -0.139109 
0.444627 0.144468 -0.177302 
0.429616 0.139591 -0.214346 
0.41182 0.133808 -0.25 
0.391352 0.127158 -0.284032 
0.368347 0.119683 -0.316223 
0.342952 0.111432 -0.346362 
0.315334 0.102458 -0.374255 
0.28567 0.0928198 -0.399721 
0.254154 0.0825795 -0.422595 
0.220989 0.0718037 -0.442728 
0.186391 0.0605622 -0.45999 
0.150585 0.0489279 -0.474268 
0.113801 0.0369763 -0.485471 
0.0762801 0.0247849 -0.493525 
0.0714637 0.0364126 0.493525 
0.106616 0.0543235 0.485471 
0.141077 0.0718821 0.474268 
0.174622 0.0889746 0.45999 
0.207036 0.10549 0.442728 
0.238106 0.121321 0.422595 
0.267633 0.136366 0.399721 
0.295423 0.150526 0.374255 
0.321298 0.16371 0.346362 
0.345089 0.175832 0.316223 
0.366642 0.186813 0.284032 
0.385817 0.196584 0.25 
0.40249 0.205079 0.214346 
0.416553 0.212244 0.177302 
0.427914 0.218033 0.139109 
0.4365 0.222408 0.100013 
0.442255 0.22534 0.0602683 
0.445142 0.226811 0.020133 
0.445142 0.226811 -0.020133 
0.442255 0.22534 -0.0602683 
0.4365 0.222408 -0.100013 
0.427914 0.218033 -0.139109 
0.416553 0.212244 -0.177302 
0.40249 0.205079 -0.214346 
0.385817 0.196584 -0.25 
0.366642 0.186813 -0.284032 
0.345089 0.175832 -0.316223 
0.321298 0.16371 -0.346362 
0.295423 0.150526 -0.374255 
0.267633 0.136366 -0.399721 
0.238106 0.121321 -0.422595 
0.207036 0.10549 -0.442728 
0.174622 0.0889746 -0.45999 
0.141077 0.0718821 -0.474268 
0.106616 0.0543235 -0.485471 
0.0714637 0.0364126 -0.493525 
0.0648877 0.0471437 0.493525 
0.0968052 0.0703331 0.485471 
0.128095 0.0930664 0.474268 
0.158554 0.115196 0.45999 
0.187984 0.136579 0.442728 
0.216196 0.157076 0.422595 
0.243005 0.176554 0.399721 
0.268239 0.194887 0.374255 
0.291733 0.211956 0.346362 
0.313334 0.227651 0.316223 
0.332904 0.241869 0.284032 
0.350315 0.254518 0.25 
0.365453 0.265517 0.214346 
0.378222 0.274794 0.177302 
0.388538 0.282289 0.139109 
0.396334 0.287953 0.100013 
0.401559 0.29175 0.0602683 
0.40418 0.293654 0.020133 
0.40418 0.293654 -0.020133 
0.401559 0.29175 -0.0602683 
0.396334 0.287953 -0.100013 
0.388538 0.282289 -0.139109 
0.378222 0.274794 -0.177302 
0.365453 0.265517 -0.214346 
0.350315 0.254518 -0.25 
0.332904 0.241869 -0.284032 
0.313334 0.227651 -0.316223 
0.291733 0.211956 -0.346362 
0.268239 0.194887 -0.374255 
0.243005 0.176554 -0.399721 
0.216196 0.157076 -0.422595 
0.187984 0.136579 -0.442728 
0.158554 0.115196 -0.45999 
0.128095 0.0930664 -0.474268 
0.0968052 0.0703331 -0.485471 
0.0648877 0.0471437 -0.493525 
0.056714 0.056714 0.493525 
0.0846109 0.0846109 0.485471 
0.111959 0.111959 0.474268 
0.138581 0.138581 0.45999 
0.164304 0.164304 0.442728 
0.188962 0.188962 0.422595 
0.212394 0.212394 0.399721 
0.234449 0.234449 0.374255 
0.254984 0.254984 0.346362 
0.273864 0.273864 0.316223 
0.290969 0.290969 0.284032 
0.306186 0.306186 0.25 
0.319418 0.319418 0.214346 
0.330578 0.330578 0.177302 
0.339594 0.339594 0.139109 
0.346408 0.346408 0.100013 
0.350976 0.350976 0.0602683 
0.353267 0.353267 0.020133 
0.353267 0.353267 -0.020133 
0.350976 0.350976 -0.0602683 
0.346408 0.346408 -0.100013 
0.339594 0.339594 -0.139109 
0.330578 0.330578 -0.177302 
0.319418 0.319418 -0.214346 
0.306186 0.306186 -0.25 
0.290969 0.290969 -0.284032 
0.273864 0.273864 -0.316223 
0.254984 0.254984 -0.346362 
0.234449 0.234449 -0.374255 
0.212394 0.212394 -0.399721 
0.188962 0.188962 -0.422595 
0.164304 0.164304 -0.442728 
0.138581 0.138581 -0.45999 
0.111959 0.111959 -0.474268 
0.0846109 0.0846109 -0.485471 
0.056714 0.056714 -0.493525 
0.0471437 0.0648877 0.493525 
0.0703331 0.0968052 0.485471 
0.0930664 0.128095 0.474268 
0.115196 0.158554 0.45999 
0.136579 0.187984 0.442728 
0.157076 0.216196 0.422595 
0.176554 0.243005 0.399721 
0.194887 0.268239 0.374255 
0.211956 0.291733 0.346362 
0.227651 0.313334 0.316223 
0.241869 0.332904 0.284032 
0.254518 0.350315 0.25 
0.265517 0.365453 0.214346 
0.274794 0.378222 0.177302 
0.282289 0.388538 0.139109 
0.287953 0.396334 0.100013 
0.29175 0.401559 0.0602683 
0.293654 0.40418 0.020133 
0.293654 0.40418 -0.020133 
0.29175 0.401559 -0.0602683 
0.287953 0.396334 -0.100013 
0.282289 0.388538 -0.139109 
0.274794 0.378222 -0.177302 
0.265517 0.365453 -0.214346 
0.254518 0.350315 -0.25 
0.241869 0.332904 -0.284032 
0.227651 0.313334 -0.316223 
0.211956 0.291733 -0.346362 
0.194887 0.268239 -0.374255 
0.176554 0.243005 -0.399721 
0.157076 0.216196 -0.422595 
0.136579 0.187984 -0.442728 
0.115196 0.158554 -0.45999 
0.0930664 0.128095 -0.474268 
0.0703331 0.0968052 -0.485471 
0.0471437 0.0648877 -0.493525 
0.0364126 0.0714637 0.493525 
0.0543235 0.106616 0.485471 
0.0718821 0.141077 0.474268 
0.0889746 0.174622 0.45999 
0.10549 0.207036 0.442728 
0.121321 0.238106 0.422595 
0.136366 0.267633 0.399721 
0.150526 0.295423 0.374255 
0.16371 0.321298 0.346362 
0.175832 0.345089 0.316223 
0.186813 0.366642 0.284032 
0.196584 0.385817 0.25 
0.205079 0.40249 0.214346 
0.212244 0.416553 0.177302 
0.218033 0.427914 0.139109 
0.222408 0.4365 0.100013 
0.22534 0.442255 0.0602683 
0.226811 0.445142 0.020133 
0.226811 0.445142 -0.020133 
0.22534 0.442255 -0.0602683 
0.222408 0.4365 -0.100013 
0.218033 0.427914 -0.139109 
0.212244 0.416553 -0.177302 
0.205079 0.40249 -0.214346 
0.196584 0.385817 -0.25 
0.186813 0.366642 -0.284032 
0.175832 0.345089 -0.316223 
0.16371 0.321298 -0.346362 
0.150526 0.295423 -0.374255 
0.136366 0.267633 -0.399721 
0.121321 0.238106 -0.422595 
0.10549 0.207036 -0.442728 
0.0889746 0.174622 -0.45999 
0.0718821 0.141077 -0.474268 
0.0543235 0.106616 -0.485471 
0.0364126 0.0714637 -0.493525 
0.0247849 0.0762801 0.493525 
0.0369763 0.113801 0.485471 
0.0489279 0.150585 0.474268 
0.0605622 0.186391 0.45999 
0.0718037 0.220989 0.442728 
0.0825795 0.254154 0.422595 
0.0928198 0.28567 0.399721 
0.102458 0.315334 0.374255 
0.111432 0.342952 0.346362 
0.119683 0.368347 0.316223 
0.127158 0.391352 0.284032 
0.133808 0.41182 0.25 
0.139591 0.429616 0.214346 
0.144468 0.444627 0.177302 
0.148408 0.456753 0.139109 
0.151386 0.465918 0.100013 
0.153382 0.472061 0.0602683 
0.154383 0.475143 0.020133 
0.154383 0.475143 -0.020133 
0.153382 0.472061 -0.0602683 
0.151386 0.465918 -0.100013 
0.148408 0.456753 -0.139109 
0.144468 0.444627 -0.177302 
0.139591 0.429616 -0.214346 
0.133808 0.41182 -0.25 
0.127158 0.391352 -0.284032 
0.119683 0.368347 -0.316223 
0.111432 0.342952 -0.346362 
0.102458 0.315334 -0.374255 
0.0928198 0.28567 -0.399721 
0.0825795 0.254154 -0.422595 
0.0718037 0.220989 -0.442728 
0.0605622 0.186391 -0.45999 
0.0489279 0.150585 -0.474268 
0.0369763 0.113801 -0.485471 
0.0247849 0.0762801 -0.493525 
0.0125469 0.0792182 0.493525 
0.0187186 0.118185 0.485471 
0.0247689 0.156385 0.474268 
0.0306585 0.19357 0.45999 
0.0363494 0.229501 0.442728 
0.0418044 0.263943 0.422595 
0.0469884 0.296673 0.399721 
0.0518676 0.327479 0.374255 
0.0564105 0.356162 0.346362 
0.0605875 0.382534 0.316223 
0.0643715 0.406426 0.284032 
0.0677381 0.427682 0.25 
0.0706654 0.446164 0.214346 
0.0731344 0.461752 0.177302 
0.0751291 0.474346 0.139109 
0.0766365 0.483864 0.100013 
0.0776469 0.490243 0.0602683 
0.0781538 0.493444 0.020133 
0.0781538 0.493444 -0.020133 
0.0776469 0.490243 -0.0602683 
0.0766365 0.483864 -0.100013 
0.0751291 0.474346 -0.139109 
0.0731344 0.461752 -0.177302 
0.0706654 0.446164 -0.214346 
0.0677381 0.427682 -0.25 
0.0643715 0.406426 -0.284032 
0.0605875 0.382534 -0.316223 
0.0564105 0.356162 -0.346362 
0.0518676 0.327479 -0.374255 
0.0469884 0.296673 -0.399721 
0.0418044 0.263943 -0.422595 
0.0363494 0.229501 -0.442728 
0.0306585 0.19357 -0.45999 
0.0247689 0.156385 -0.474268 
0.0187186 0.118185 -0.485471 
0.0125469 0.0792182 -0.493525 
4.91118e-18 0.0802056 0.493525 
7.32693e-18 0.119658 0.485471 
9.69516e-18 0.158334 0.474268 
1.20005e-17 0.195983 0.45999 
1.4228e-17 0.232362 0.442728 
1.63633e-17 0.267233 0.422595 
1.83924e-17 0.300371 0.399721 
2.03023e-17 0.331561 0.374255 
2.20805e-17 0.360601 0.346362 
2.37154e-17 0.387302 0.316223 
2.51966e-17 0.411492 0.284032 
2.65144e-17 0.433013 0.25 
2.76602e-17 0.451725 0.214346 
2.86266e-17 0.467508 0.177302 
2.94074e-17 0.480259 0.139109 
2.99974e-17 0.489895 0.100013 
3.03929e-17 0.496354 0.0602683 
3.05913e-17 0.499595 0.020133 
3.05913e-17 0.499595 -0.020133 
3.03929e-17 0.496354 -0.0602683 
2.99974e-17 0.489895 -0.100013 
2.94074e-17 0.480259 -0.139109 
2.86266e-17 0.467508 -0.177302 
2.76602e-17 0.451725 -0.214346 
2.65144e-17 0.433013 -0.25 
2.51966e-17 0.411492 -0.284032 
2.37154e-17 0.387302 -0.316223 
2.20805e-17 0.360601 -0.346362 
2.03023e-17 0.331561 -0.374255 
1.83924e-17 0.300371 -0.399721 
1.63633e-17 0.267233 -0.422595 
1.4228e-17 0.232362 -0.442728 
1.20005e-17 0.195983 -0.45999 
9.69516e-18 0.158334 -0.474268 
7.32693e-18 0.119658 -0.485471 
4.91118e-18 0.0802056 -0.493525 
-0.0125469 0.0792182 0.493525 
-0.0187186 0.118185 0.485471 
-0.0247689 0.156385 0.474268 
-0.0306585 0.19357 0.45999 
-0.0363494 0.229501 0.442728 
-0.0418044 0.263943 0.422595 
-0.0469884 0.296673 0.399721 
-0.0518676 0.327479 0.374255 
-0.0564105 0.356162 0.346362 
-0.0605875 0.382534 0.316223 
-0.0643715 0.406426 0.284032 
-0.0677381 0.427682 0.25 
-0.0706654 0.446164 0.214346 
-0.0731344 0.461752 0.177302 
-0.0751291 0.474346 0.139109 
-0.0766365 0.483864 0.100013 
-0.0776469 0.490243 0.0602683 
-0.0781538 0.493444 0.020133 
-0.0781538 0.493444 -0.020133 
-0.0776469 0.490243 -0.0602683 
-0.0766365 0.483864 -0.100013 
-0.0751291 0.474346 -0.139109 
-0.0731344 0.461752 -0.177302 
-0.0706654 0.446164 -0.214346 
-0.0677381 0.427682 -0.25 
-0.0643715 0.406426 -0.284032 
-0.0605875 0.382534 -0.316223 
-0.0564105 0.356162 -0.346362 
-0.0518676 0.327479 -0.374255 
-0.0469884 0.296673 -0.399721 
-0.0418044 0.263943 -0.422595 
-0.0363494 0.229501 -0.442728 
-0.0306585 0.19357 -0.45999 
-0.0247689 0.156385 -0.474268 
-0.0187186 0.118185 -0.485471 
-0.0125469 0.0792182 -0.493525 
-0.0247849 0.0762801 0.493525 
-0.0369763 0.113801 0.485471 
-0.0489279 0.150585 0.474268 
-0.0605622 0.186391 0.45999 
-0.0718037 0.220989 0.442728 
-0.0825795 0.254154 0.422595 
-0.0928198 0.28567 0.399721 
-0.102458 0.315334 0.374255 
-0.111432 0.342952 0.346362 
-0.119683 0.368347 0.316223 
-0.127158 0.391352 0.284032 
-0.133808 0.41182 0.25 
-0.139591 0.429616 0.214346 
-0.144468 0.444627 0.177302 
-0.148408 0.456753 0.139109 
-0.151386 0.465918 0.100013 
-0.153382 0.472061 0.0602683 
-0.154383 0.475143 0.020133 
-0.154383 0.475143 -0.020133 
-0.153382 0.472061 -0.0602683 
-0.151386 0.465918 -0.100013 
-0.148408 0.456753 -0.139109 
-0.144468 0.444627 -0.177302 
-0.139591 0.429616 -0.214346 
-0.133808 0.41182 -0.25 
-0.127158 0.391352 -0.284032 
-0.119683 0.368347 -0.316223 
-0.111432 0.342952 -0.346362 
-0.102458 0.315334 -0.374255 
-0.0928198 0.28567 -0.399721 
-0.0825795 0.254154 -0.422595 
-0.0718037 0.220989 -0.442728 
-0.0605622 0.186391 -0.45999 
-0.0489279 0.150585 -0.474268 
-0.0369763 0.113801 -0.485471 
-0.0247849 0.0762801 -0.493525 
-0.0364126 0.0714637 0.493525 
-0.0543235 0.106616 0.485471 
-0.0718821 0.141077 0.474268 
-0.0889746 0.174622 0.45999 
-0.10549 0.207036 0.442728 
-0.121321 0.238106 0.422595 
-0.136366 0.267633 0.399721 
-0.150526 0.295423 0.374255 
-0.16371 0.321298 0.346362 
-0.175832 0.345089 0.316223 
-0.186813 0.366642 0.284032 
-0.196584 0.385817 0.25 
-0.205079 0.40249 0.214346 
-0.212244 0.416553 0.177302 
-0.218033 0.427914 0.139109 
-0.222408 0.4365 0.100013 
-0.22534 0.442255 0.0602683 
-0.226811 0.445142 0.020133 
-0.226811 0.445142 -0.020133 
-0.22534 0.442255 -0.0602683 
-0.222408 0.4365 -0.100013 
-0.218033 0.427914 -0.139109 
-0.212244 0.416553 -0.177302 
-0.205079 0.40249 -0.214346 
-0.196584 0.385817 -0.25 
-0.186813 0.366642 -0.284032 
-0.175832 0.345089 -0.316223 
-0.16371 0.321298 -0.346362 
-0.150526 0.295423 -0.374255 
-0.136366 0.267633 -0.399721 
-0.121321 0.238106 -0.422595 
-0.10549 0.207036 -0.442728 
-0.0889746 0.174622 -0.45999 
-0.0718821 0.141077 -0.474268 
-0.0543235 0.106616 -0.485471 
-0.0364126 0.0714637 -0.493525 
-0.0471437 0.0648877 0.493525 
-0.0703331 0.0968052 0.485471 
-0.0930664 0.128095 0.474268 
-0.115196 0.158554 0.45999 
-0.136579 0.187984 0.442728 
-0.157076 0.216196 0.422595 
-0.176554 0.243005 0.399721 
-0.194887 0.268239 0.374255 
-0.211956 0.291733 0.346362 
-0.227651 0.313334 0.316223 
-0.241869 0.332904 0.284032 
-0.254518 0.350315 0.25 
-0.265517 0.365453 0.214346 
-0.274794 0.378222 0.177302 
-0.282289 0.388538 0.139109 
-0.287953 0.396334 0.100013 
-0.29175 0.401559 0.0602683 
-0.293654 0.40418 0.020133 
-0.293654 0.40418 -0.020133 
-0.29175 0.401559 -0.0602683 
-0.287953 0.396334 -0.100013 
-0.282289 0.388538 -0.139109 
-0.274794 0.378222 -0.177302 
-0.265517 0.365453 -0.214346 
-0.254518 0.350315 -0.25 
-0.241869 0.332904 -0.284032 
-0.227651 0.313334 -0.316223 
-0.211956 0.291733 -0.346362 
-0.194887 0.268239 -0.374255 
-0.176554 0.243005 -0.399721 
-0.157076 0.216196 -0.422595 
-0.136579 0.187984 -0.442728 
-0.115196 0.158554 -0.45999 
-0.0930664 0.128095 -0.474268 
-0.0703331 0.0968052 -0.485471 
-0.0471437 0.0648877 -0.493525 
-0.056714 0.056714 0.493525 
-0.0846109 0.0846109 0.485471 
-0.111959 0.111959 0.474268 
-0.138581 0.138581 0.45999 
-0.164304 0.164304 0.442728 
-0.188962 0.188962 0.422595 
-0.212394 0.212394 0.399721 
-0.234449 0.234449 0.374255 
-0.254984 0.254984 0.346362 
-0.273864 0.273864 0.316223 
-0.290969 0.290969 0.284032 
-0.306186 0.306186 0.25 
-0.319418 0.319418 0.214346 
-0.330578 0.330578 0.177302 
-0.339594 0.339594 0.139109 
-0.346408 0.346408 0.100013 
-0.350976 0.350976 0.0602683 
-0.353267 0.353267 0.020133 
-0.353267 0.353267 -0.020133 
-0.350976 0.350976 -0.0602683 
-0.346408 0.346408 -0.100013 
-0.339594 0.339594 -0.139109 
-0.330578 0.330578 -0.177302 
-0.319418 0.319418 -0.214346 
-0.306186 0.306186 -0.25 
-0.290969 0.290969 -0.284032 
-0.273864 0.273864 -0.316223 
-0.254984 0.254984 -0.346362 
-0.234449 0.234449 -0.374255 
-0.212394 0.212394 -0.399721 
-0.188962 0.188962 -0.422595 
-0.164304 0.164304 -0.442728 
-0.138581 0.138581 -0.45999 
-0.111959 0.111959 -0.474268 
-0.0846109 0.0846109 -0.485471 
-0.056714 0.056714 -0.493525 
-0.0648877 0.0471437 0.493525 
-0.0968052 0.0703331 0.485471 
-0.128095 0.0930664 0.474268 
-0.158554 0.115196 0.45999 
-0.187984 0.136579 0.442728 
-0.216196 0.157076 0.422595 
-0.243005 0.176554 0.399721 
-0.268239 0.194887 0.374255 
-0.291733 0.211956 0.346362 
-0.313334 0.227651 0.316223 
-0.332904 0.241869 0.284032 
-0.350315 0.254518 0.25 
-0.365453 0.265517 0.214346 
-0.378222 0.274794 0.177302 
-0.388538 0.282289 0.139109 
-0.396334 0.287953 0.100013 
-0.401559 0.29175 0.0602683 
-0.40418 0.293654 0.020133 
-0.40418 0.293654 -0.020133 
-0.401559 0.29175 -0.0602683 
-0.396334 0.287953 -0.100013 
-0.388538 0.282289 -0.139109 
-0.378222 0.274794 -0.177302 
-0.365453 0.265517 -0.214346 
-0.350315 0.254518 -0.25 
-0.332904 0.241869 -0.284032 
-0.313334 0.227651 -0.316223 
-0.291733 0.211956 -0.346362 
-0.268239 0.194887 -0.374255 
-0.243005 0.176554 -0.399721 
-0.216196 0.157076 -0.422595 
-0.187984 0.136579 -0.442728 
-0.158554 0.115196 -0.45999 
-0.128095 0.0930664 -0.474268 
-0.0968052 0.0703331 -0.485471 
-0.0648877 0.0471437 -0.493525 
-0.0714637 0.0364126 0.493525 
-0.106616 0.0543235 0.485471 
-0.141077 0.0718821 0.474268 
-0.174622 0.0889746 0.45999 
-0.207036 0.10549 0.442728 
-0.238106 0.121321 0.422595 
-0.267633 0.136366 0.399721 
-0.295423 0.150526 0.374255 
-0.321298 0.16371 0.346362 
-0.345089 0.175832 0.316223 
-0.366642 0.186813 0.284032 
-0.385817 0.196584 0.25 
-0.40249 0.205079 0.214346 
-0.416553 0.212244 0.177302 
-0.427914 0.218033 0.139109 
-0.4365 0.222408 0.100013 
-0.442255 0.22534 0.0602683 
-0.445142 0.226811 0.020133 
-0.445142 0.226811 -0.020133 
-0.442255 0.22534 -0.0602683 
-0.4365 0.222408 -0.100013 
-0.427914 0.218033 -0.139109 
-0.416553 0.212244 -0.177302 
-0.40249 0.205079 -0.214346 
-0.385817 0.196584 -0.25 
-0.366642 0.186813 -0.284032 
-0.345089 0.175832 -0.316223 
-0.321298 0.16371 -0.346362 
-0.295423 0.150526 -0.374255 
-0.267633 0.136366 -0.399721 
-0.238106 0.121321 -0.422595 
-0.207036 0.10549 -0.442728 
-0.174622 0.0889746 -0.45999 
-0.141077 0.0718821 -0.474268 
-0.106616 0.0543235 -0.485471 
-0.0714637 0.0364126 -0.493525 
-0.0762801 0.0247849 0.493525 
-0.113801 0.0369763 0.485471 
-0.150585 0.0489279 0.474268 
-0.186391 0.0605622 0.45999 
-0.220989 0.0718037 0.442728 
-0.254154 0.0825795 0.422595 
-0.28567 0.0928198 0.399721 
-0.315334 0.102458 0.374255 
-0.342952 0.111432 0.346362 
-0.368347 0.119683 0.316223 
-0.391352 0.127158 0.284032 
-0.41182 0.133808 0.25 
-0.429616 0.139591 0.214346 
-0.444627 0.144468 0.177302 
-0.456753 0.148408 0.139109 
-0.465918 0.151386 0.100013 
-0.472061 0.153382 0.0602683 
-0.475143 0.154383 0.020133 
-0.475143 0.154383 -0.020133 
-0.472061 0.153382 -0.0602683 
-0.465918 0.151386 -0.100013 
-0.456753 0.148408 -0.139109 
-0.444627 0.144468 -0.177302 
-0.429616 0.139591 -0.214346 
-0.41182 0.133808 -0.25 
-0.391352 0.127158 -0.284032 
-0.368347 0.119683 -0.316223 
-0.342952 0.111432 -0.346362 
-0.315334 0.102458 -0.374255 
-0.28567 0.0928198 -0.399721 
-0.254154 0.0825795 -0.422595 
-0.220989 0.0718037 -0.442728 
-0.186391 0.0605622 -0.45999 
-0.150585 0.0489279 -0.474268 
-0.113801 0.0369763 -0.485471 
-0.0762801 0.0247849 -0.493525 
-0.0792182 0.0125469 0.493525 
-0.118185 0.0187186 0.485471 
-0.156385 0.0247689 0.474268 
-0.19357 0.0306585 0.45999 
-0.229501 0.0363494 0.442728 
-0.263943 0.0418044 0.422595 
-0.296673 0.0469884 0.399721 
-0.327479 0.0518676 0.374255 
-0.356162 0.0564105 0.346362 
-0.382534 0.0605875 0.316223 
-0.406426 0.0643715 0.284032 
-0.427682 0.0677381 0.25 
-0.446164 0.0706654 0.214346 
-0.461752 0.0731344 0.177302 
-0.474346 0.0751291 0.139109 
-0.483864 0.0766365 0.100013 
-0.490243 0.0776469 0.0602683 
-0.493444 0.0781538 0.020133 
-0.493444 0.0781538 -0.020133 
-0.490243 0.0776469 -0.0602683 
-0.483864 0.0766365 -0.100013 
-0.474346 0.0751291 -0.139109 
-0.461752 0.0731344 -0.177302 
-0.446164 0.0706654 -0.214346 
-0.427682 0.0677381 -0.25 
-0.406426 0.0643715 -0.284032 
-0.382534 0.0605875 -0.316223 
-0.356162 0.0564105 -0.346362 
-0.327479 0.0518676 -0.374255 
-0.296673 0.0469884 -0.399721 
-0.263943 0.0418044 -0.422595 
-0.229501 0.0363494 -0.442728 
-0.19357 0.0306585 -0.45999 
-0.156385 0.0247689 -0.474268 
-0.118185 0.0187186 -0.485471 
-0.0792182 0.0125469 -0.493525 
-0.0802056 9.82236e-18 0.493525 
-0.119658 1.46539e-17 0.485471 
-0.158334 1.93903e-17 0.474268 
-0.195983 2.4001e-17 0.45999 
-0.232362 2.84561e-17 0.442728 
-0.267233 3.27266e-17 0.422595 
-0.300371 3.67849e-17 0.399721 
-0.331561 4.06046e-17 0.374255 
-0.360601 4.41609e-17 0.346362 
-0.387302 4.74309e-17 0.316223 
-0.411492 5.03932e-17 0.284032 
-0.433013 5.30288e-17 0.25 
-0.451725 5.53204e-17 0.214346 
-0.467508 5.72532e-17 0.177302 
-0.480259 5.88148e-17 0.139109 
-0.489895 5.99949e-17 0.100013 
-0.496354 6.07859e-17 0.0602683 
-0.499595 6.11827e-17 0.020133 
-0.499595 6.11827e-17 -0.020133 
-0.496354 6.07859e-17 -0.0602683 
-0.489895 5.99949e-17 -0.100013 
-0.480259 5.88148e-17 -0.139109 
-0.467508 5.72532e-17 -0.177302 
-0.451725 5.53204e-17 -0.214346 
-0.433013 5.30288e-17 -0.25 
-0.411492 5.03932e-17 -0.284032 
-0.387302 4.74309e-17 -0.316223 
-0.360601 4.41609e-17 -0.346362 
-0.331561 4.06046e-17 -0.374255 
-0.300371 3.67849e-17 -0.399721 
-0.267233 3.27266e-17 -0.422595 
-0.232362 2.84561e-17 -0.442728 
-0.195983 2.4001e-17 -0.45999 
-0.158334 1.93903e-17 -0.474268 
-0.119658 1.46539e-17 -0.485471 
-0.0802056 9.82236e-18 -0.493525 
-0.0792182 -0.0125469 0.493525 
-0.118185 -0.0187186 0.485471 
-0.156385 -0.0247689 0.474268 
-0.19357 -0.0306585 0.45999 
-0.229501 -0.0363494 0.442728 
-0.263943 -0.0418044 0.422595 
-0.296673 -0.0469884 0.399721 
-0.327479 -0.0518676 0.374255 
-0.356162 -0.0564105 0.346362 
-0.382534 -0.0605875 0.316223 
-0.406426 -0.0643715 0.284032 
-0.427682 -0.0677381 0.25 
-0.446164 -0.0706654 0.214346 
-0.461752 -0.0731344 0.177302 
-0.474346 -0.0751291 0.139109 
-0.483864 -0.0766365 0.100013 
-0.490243 -0.0776469 0.0602683 
-0.493444 -0.0781538 0.020133 
-0.493444 -0.0781538 -0.020133 
-0.490243 -0.0776469 -0.0602683 
-0.483864 -0.0766365 -0.100013 
-0.474346 -0.0751291 -0.139109 
-0.461752 -0.0731344 -0.177302 
-0.446164 -0.0706654 -0.214346 
-0.427682 -0.0677381 -0.25 
-0.406426 -0.0643715 -0.284032 
-0.382534 -0.0605875 -0.316223 
-0.356162 -0.0564105 -0.346362 
-0.327479 -0.0518676 -0.374255 
-0.296673 -0.0469884 -0.399721 
-0.263943 -0.0418044 -0.422595 
-0.229501 -0.0363494 -0.442728 
-0.19357 -0.0306585 -0.45999 
-0.156385 -0.0247689 -0.474268 
-0.118185 -0.0187186 -0.485471 
-0.0792182 -0.0125469 -0.493525 
-0.0762801 -0.0247849 0.493525 
-0.113801 -0.0369763 0.485471 
-0.150585 -0.0489279 0.474268 
-0.186391 -0.0605622 0.45999 
-0.220989 -0.0718037 0.442728 
-0.254154 -0.0825795 0.422595 
-0.28567 -0.0928198 0.399721 
-0.315334 -0.102458 0.374255 
-0.342952 -0.111432 0.346362 
-0.368347 -0.119683 0.316223 
-0.391352 -0.127158 0.284032 
-0.41182 -0.133808 0.25 
-0.429616 -0.139591 0.214346 
-0.444627 -0.144468 0.177302 
-0.456753 -0.148408 0.139109 
-0.465918 -0.151386 0.100013 
-0.472061 -0.153382 0.0602683 
-0.475143 -0.154383 0.020133 
-0.475143 -0.154383 -0.020133 
-0.472061 -0.153382 -0.0602683 
-0.465918 -0.151386 -0.100013 
-0.456753 -0.148408 -0.139109 
-0.444627 -0.144468 -0.177302 
-0.429616 -0.139591 -0.214346 
-0.41182 -0.133808 -0.25 
-0.391352 -0.127158 -0.284032 
-0.368347 -0.119683 -0.316223 
-0.342952 -0.111432 -0.346362 
-0.315334 -0.102458 -0.374255 
-0.28567 -0.0928198 -0.399721 
-0.254154 -0.0825795 -0.422595 
-0.220989 -0.0718037 -0.442728 
-0.186391 -0.0605622 -0.45999 
-0.150585 -0.0489279 -0.474268 
-0.113801 -0.0369763 -0.485471 
-0.0762801 -0.0247849 -0.493525 
-0.0714637 -0.0364126 0.493525 
-0.106616 -0.0543235 0.485471 
-0.141077 -0.0718821 0.474268 
-0.174622 -0.0889746 0.45999 
-0.207036 -0.10549 0.442728 
-0.238106 -0.121321 0.422595 
-0.267633 -0.136366 0.399721 
-0.295423 -0.150526 0.374255 
-0.321298 -0.16371 0.346362 
-0.345089 -0.175832 0.316223 
-0.366642 -0.186813 0.284032 
-0.385817 -0.196584 0.25 
-0.40249 -0.205079 0.214346 
-0.416553 -0.212244 0.177302 
-0.427914 -0.218033 0.139109 
-0.4365 -0.222408 0.100013 
-0.442255 -0.22534 0.0602683 
-0.445142 -0.226811 0.020133 
-0.445142 -0.226811 -0.020133 
-0.442255 -0.22534 -0.0602683 
-0.4365 -0.222408 -0.100013 
-0.427914 -0.218033 -0.139109 
-0.416553 -0.212244 -0.177302 
-0.40249 -0.205079 -0.214346 
-0.385817 -0.196584 -0.25 
-0.366642 -0.186813 -0.284032 
-0.345089 -0.175832 -0.316223 
-0.321298 -0.16371 -0.346362 
-0.295423 -0.150526 -0.374255 
-0.267633 -0.136366 -0.399721 
-0.238106 -0.121321 -0.422595 
-0.207036 -0.10549 -0.442728 
-0.174622 -0.0889746 -0.45999 
-0.141077 -0.0718821 -0.474268 
-0.106616 -0.0543235 -0.485471 
-0.0714637 -0.0364126 -0.493525 
-0.0648877 -0.0471437 0.493525 
-0.0968052 -0.0703331 0.485471 
-0.128095 -0.0930664 0.474268 
-0.158554 -0.115196 0.45999 
-0.187984 -0.136579 0.442728 
-0.216196 -0.157076 0.422595 
-0.243005 -0.176554 0.399721 
-0.268239 -0.194887 0.374255 
-0.291733 -0.211956 0.346362 
-0.313334 -0.227651 0.316223 
-0.332904 -0.241869 0.284032 
-0.350315 -0.254518 0.25 
-0.365453 -0.265517 0.214346 
-0.378222 -0.274794 0.177302 
-0.388538 -0.282289 0.139109 
-0.396334 -0.287953 0.100013 
-0.401559 -0.29175 0.0602683 
-0.40418 -0.293654 0.020133 
-0.40418 -0.293654 -0.020133 
-0.401559 -0.29175 -0.0602683 
-0.396334 -0.287953 -0.100013 
-0.388538 -0.282289 -0.139109 
-0.378222 -0.274794 -0.177302 
-0.365453 -0.265517 -0.214346 
-0.350315 -0.254518 -0.25 
-0.332904 -0.241869 -0.284032 
-0.313334 -0.227651 -0.316223 
-0.291733 -0.211956 -0.346362 
-0.268239 -0.194887 -0.374255 
-0.243005 -0.176554 -0.399721 
-0.216196 -0.157076 -0.422595 
-0.187984 -0.136579 -0.442728 
-0.158554 -0.115196 -0.45999 
-0.128095 -0.0930664 -0.474268 
-0.0968052 -0.0703331 -0.485471 
-0.0648877 -0.0471437 -0.493525 
-0.056714 -0.056714 0.493525 
-0.0846109 -0.0846109 0.485471 
-0.111959 -0.111959 0.474268 
-0.138581 -0.138581 0.45999 
-0.164304 -0.164304 0.442728 
-0.188962 -0.188962 0.422595 
-0.212394 -0.212394 0.399721 
-0.234449 -0.234449 0.374255 
-0.254984 -0.254984 0.346362 
-0.273864 -0.273864 0.316223 
-0.290969 -0.290969 0.284032 
-0.306186 -0.306186 0.25 
-0.319418 -0.319418 0.214346 
-0.330578 -0.330578 0.177302 
-0.339594 -0.339594 0.139109 
-0.346408 -0.346408 0.100013 
-0.350976 -0.350976 0.0602683 
-0.353267 -0.353267 0.020133 
-0.353267 -0.353267 -0.020133 
-0.350976 -0.350976 -0.0602683 
-0.346408 -0.346408 -0.100013 
-0.339594 -0.339594 -0.139109 
-0.330578 -0.330578 -0.177302 
-0.319418 -0.319418 -0.214346 
-0.306186 -0.306186 -0.25 
-0.290969 -0.290969 -0.284032 
-0.273864 -0.273864 -0.316223 
-0.254984 -0.254984 -0.346362 
-0.234449 -0.234449 -0.374255 
-0.212394 -0.212394 -0.399721 
-0.188962 -0.188962 -0.422595 
-0.164304 -0.164304 -0.442728 
-0.138581 -0.138581 -0.45999 
-0.111959 -0.111959 -0.474268 
-0.0846109 -0.0846109 -0.485471 
-0.056714 -0.056714 -0.493525 
-0.0471437 -0.0648877 0.493525 
-0.0703331 -0.0968052 0.485471 
-0.0930664 -0.128095 0.474268 
-0.115196 -0.158554 0.45999 
-0.136579 -0.187984 0.442728 
-0.157076 -0.216196 0.422595 
-0.176554 -0.243005 0.399721 
-0.194887 -0.268239 0.374255 
-0.211956 -0.291733 0.346362 
-0.227651 -0.313334 0.316223 
-0.241869 -0.332904 0.284032 
-0.254518 -0.350315 0.25 
-0.265517 -0.365453 0.214346 
-0.274794 -0.378222 0.177302 
-0.282289 -0.388538 0.139109 
-0.287953 -0.396334 0.100013 
-0.29175 -0.401559 0.0602683 
-0.293654 -0.40418 0.020133 
-0.293654 -0.40418 -0.020133 
-0.29175 -0.401559 -0.0602683 
-0.287953 -0.396334 -0.100013 
-0.282289 -0.388538 -0.139109 
-0.274794 -0.378222 -0.177302 
-0.265517 -0.365453 -0.214346 
-0.254518 -0.350315 -0.25 
-0.241869 -0.332904 -0.284032 
-0.227651 -0.313334 -0.316223 
-0.211956 -0.291733 -0.346362 
-0.194887 -0.268239 -0.374255 
-0.176554 -0.243005 -0.399721 
-0.157076 -0.216196 -0.422595 
-0.136579 -0.187984 -0.442728 
-0.115196 -0.158554 -0.45999 
-0.0930664 -0.128095 -0.474268 
-0.0703331 -0.0968052 -0.485471 
-0.0471437 -0.0648877 -0.493525 
-0.0364126 -0.0714637 0.493525 
-0.0543235 -0.106616 0.485471 
-0.0718821 -0.141077 0.474268 
-0.0889746 -0.174622 0.45999 
-0.10549 -0.207036 0.442728 
-0.121321 -0.238106 0.422595 
-0.136366 -0.267633 0.399721 
-0.150526 -0.295423 0.374255 
-0.16371 -0.321298 0.346362 
-0.175832 -0.345089 0.316223 
-0.186813 -0.366642 0.284032 
-0.196584 -0.385817 0.25 
-0.205079 -0.40249 0.214346 
-0.212244 -0.416553 0.177302 
-0.218033 -0.427914 0.139109 
-0.222408 -0.4365 0.100013 
-0.22534 -0.442255 0.0602683 
-0.226811 -0.445142 0.020133 
-0.226811 -0.445142 -0.020133 
-0.22534 -0.442255 -0.0602683 
-0.222408 -0.4365 -0.100013 
-0.218033 -0.427914 -0.139109 
-0.212244 -0.416553 -0.177302 
-0.205079 -0.40249 -0.214346 
-0.196584 -0.385817 -0.25 
-0.186813 -0.366642 -0.284032 
-0.175832 -0.345089 -0.316223 
-0.16371 -0.321298 -0.346362 
-0.150526 -0.295423 -0.374255 
-0.136366 -0.267633 -0.399721 
-0.121321 -0.238106 -0.422595 
-0.10549 -0.207036 -0.442728 
-0.0889746 -0.174622 -0.45999 
-0.0718821 -0.141077 -0.474268 
-0.0543235 -0.106616 -0.485471 
-0.0364126 -0.0714637 -0.493525 
-0.0247849 -0.0762801 0.493525 
-0.0369763 -0.113801 0.485471 
-0.0489279 -0.150585 0.474268 
-0.0605622 -0.186391 0.45999 
-0.0718037 -0.220989 0.442728 
-0.0825795 -0.254154 0.422595 
-0.0928198 -0.28567 0.399721 
-0.102458 -0.315334 0.374255 
-0.111432 -0.342952 0.346362 
-0.119683 -0.368347 0.316223 
-0.127158 -0.391352 0.284032 
-0.133808 -0.41182 0.25 
-0.139591 -0.429616 0.214346 
-0.144468 -0.444627 0.177302 
-0.148408 -0.456753 0.139109 
-0.151386 -0.465918 0.100013 
-0.153382 -0.472061 0.0602683 
-0.154383 -0.475143 0.020133 
-0.154383 -0.475143 -0.020133 
-0.153382 -0.472061 -0.0602683 
-0.151386 -0.465918 -0.100013 
-0.148408 -0.456753 -0.139109 
-0.144468 -0.444627 -0.177302 
-0.139591 -0.429616 -0.214346 
-0.133808 -0.41182 -0.25 
-0.127158 -0.391352 -0.284032 
-0.119683 -0.368347 -0.316223 
-0.111432 -0.342952 -0.346362 
-0.102458 -0.315334 -0.374255 
-0.0928198 -0.28567 -0.399721 
-0.0825795 -0.254154 -0.422595 
-0.0718037 -0.220989 -0.442728 
-0.0605622 -0.186391 -0.45999 
-0.0489279 -0.150585 -0.474268 
-0.0369763 -0.113801 -0.485471 
-0.0247849 -0.0762801 -0.493525 
-0.0125469 -0.0792182 0.493525 
-0.0187186 -0.118185 0.485471 
-0.0247689 -0.156385 0.474268 
-0.0306585 -0.19357 0.45999 
-0.0363494 -0.229501 0.442728 
-0.0418044 -0.263943 0.422595 
-0.0469884 -0.296673 0.399721 
-0.0518676 -0.327479 0.374255 
-0.0564105 -0.356162 0.346362 
-0.0605875 -0.382534 0.316223 
-0.0643715 -0.406426 0.284032 
-0.0677381 -0.427682 0.25 
-0.0706654 -0.446164 0.214346 
-0.0731344 -0.461752 0.177302 
-0.0751291 -0.474346 0.139109 
-0.0766365 -0.483864 0.100013 
-0.0776469 -0.490243 0.0602683 
-0.0781538 -0.493444 0.020133 
-0.0781538 -0.493444 -0.020133 
-0.0776469 -0.490243 -0.0602683 
-0.0766365 -0.483864 -0.100013 
-0.0751291 -0.474346 -0.139109 
-0.0731344 -0.461752 -0.177302 
-0.0706654 -0.446164 -0.214346 
-0.0677381 -0.427682 -0.25 
-0.0643715 -0.406426 -0.284032 
-0.0605875 -0.382534 -0.316223 
-0.0564105 -0.356162 -0.346362 
-0.0518676 -0.327479 -0.374255 
-0.0469884 -0.296673 -0.399721 
-0.0418044 -0.263943 -0.422595 
-0.0363494 -0.229501 -0.442728 
-0.0306585 -0.19357 -0.45999 
-0.0247689 -0.156385 -0.474268 
-0.0187186 -0.118185 -0.485471 
-0.0125469 -0.0792182 -0.493525 
-1.47335e-17 -0.0802056 0.493525 
-2.19808e-17 -0.119658 0.485471 
-2.90855e-17 -0.158334 0.474268 
-3.60016e-17 -0.195983 0.45999 
-4.26841e-17 -0.232362 0.442728 
-4.90899e-17 -0.267233 0.422595 
-5.51773e-17 -0.300371 0.399721 
-6.09068e-17 -0.331561 0.374255 
-6.62414e-17 -0.360601 0.346362 
-7.11463e-17 -0.387302 0.316223 
-7.55898e-17 -0.411492 0.284032 
-7.95431e-17 -0.433013 0.25 
-8.29806e-17 -0.451725 0.214346 
-8.58798e-17 -0.467508 0.177302 
-8.82222e-17 -0.480259 0.139109 
-8.99923e-17 -0.489895 0.100013 
-9.11788e-17 -0.496354 0.0602683 
-9.1774e-17 -0.499595 0.020133 
-9.1774e-17 -0.499595 -0.020133 
-9.11788e-17 -0.496354 -0.0602683 
-8.99923e-17 -0.489895 -0.100013 
-8.82222e-17 -0.480259 -0.139109 
-8.58798e-17 -0.467508 -0.177302 
-8.29806e-17 -0.451725 -0.214346 
-7.95431e-17 -0.433013 -0.25 
-7.55898e-17 -0.411492 -0.284032 
-7.11463e-17 -0.387302 -0.316223 
-6.62414e-17 -0.360601 -0.346362 
-6.09068e-17 -0.331561 -0.374255 
-5.51773e-17 -0.300371 -0.399721 
-4.90899e-17 -0.267233 -0.422595 
-4.26841e-17 -0.232362 -0.442728 
-3.60016e-17 -0.195983 -0.45999 
-2.90855e-17 -0.158334 -0.474268 
-2.19808e-17 -0.119658 -0.485471 
-1.47335e-17 -0.0802056 -0.493525 
0.0125469 -0.0792182 0.493525 
0.0187186 -0.118185 0.485471 
0.0247689 -0.156385 0.474268 
0.0306585 -0.19357 0.45999 
0.0363494 -0.229501 0.442728 
0.0418044 -0.263943 0.422595 
0.0469884 -0.296673 0.399721 
0.0518676 -0.327479 0.374255 
0.0564105 -0.356162 0.346362 
0.0605875 -0.382534 0.316223 
0.0643715 -0.406426 0.284032 
0.0677381 -0.427682 0.25 
0.0706654 -0.446164 0.214346 
0.0731344 -0.461752 0.177302 
0.0751291 -0.474346 0.139109 
0.0766365 -0.483864 0.100013 
0.0776469 -0.490243 0.0602683 
0.0781538 -0.493444 0.020133 
0.0781538 -0.493444 -0.020133 
0.0776469 -0.490243 -0.0602683 
0.0766365 -0.483864 -0.100013 
0.0751291 -0.474346 -0.139109 
0.0731344 -0.461752 -0.177302 
0.0706654 -0.446164 -0.214346 
0.0677381 -0.427682 -0.25 
0.0643715 -0.406426 -0.284032 
0.0605875 -0.382534 -0.316223 
0.0564105 -0.356162 -0.346362 
0.0518676 -0.327479 -0.374255 
0.0469884 -0.296673 -0.399721 
0.0418044 -0.263943 -0.422595 
0.0363494 -0.229501 -0.442728 
0.0306585 -0.19357 -0.45999 
0.0247689 -0.156385 -0.474268 
0.0187186 -0.118185 -0.485471 
0.0125469 -0.0792182 -0.493525 
0.0247849 -0.0762801 0.493525 
0.0369763 -0.113801 0.485471 
0.0489279 -0.150585 0.474268 
0.0605622 -0.186391 0.45999 
0.0718037 -0.220989 0.442728 
0.0825795 -0.254154 0.422595 
0.0928198 -0.28567 0.399721 
0.102458 -0.315334 0.374255 
0.111432 -0.342952 0.346362 
0.119683 -0.368347 0.316223 
0.127158 -0.391352 0.284032 
0.133808 -0.41182 0.25 
0.139591 -0.429616 0.214346 
0.144468 -0.444627 0.177302 
0.148408 -0.456753 0.139109 
0.151386 -0.465918 0.100013 
0.153382 -0.472061 0.0602683 
0.154383 -0.475143 0.020133 
0.154383 -0.475143 -0.020133 
0.153382 -0.472061 -0.0602683 
0.151386 -0.465918 -0.100013 
0.148408 -0.456753 -0.139109 
0.144468 -0.444627 -0.177302 
0.139591 -0.429616 -0.214346 
0.133808 -0.41182 -0.25 
0.127158 -0.391352 -0.284032 
0.119683 -0.368347 -0.316223 
0.111432 -0.342952 -0.346362 
0.102458 -0.315334 -0.374255 
0.0928198 -0.28567 -0.399721 
0.0825795 -0.254154 -0.422595 
0.0718037 -0.220989 -0.442728 
0.0605622 -0.186391 -0.45999 
0.0489279 -0.150585 -0.474268 
0.0369763 -0.113801 -0.485471 
0.0247849 -0.0762801 -0.493525 
0.0364126 -0.0714637 0.493525 
0.0543235 -0.106616 0.485471 
0.0718821 -0.141077 0.474268 
0.0889746 -0.174622 0.45999 
0.10549 -0.207036 0.442728 
0.121321 -0.238106 0.422595 
0.136366 -0.267633 0.399721 
0.150526 -0.295423 0.374255 
0.16371 -0.321298 0.346362 
0.175832 -0.345089 0.316223 
0.186813 -0.366642 0.284032 
0.196584 -0.385817 0.25 
0.205079 -0.40249 0.214346 
0.212244 -0.416553 0.177302 
0.218033 -0.427914 0.139109 
0.222408 -0.4365 0.100013 
0.22534 -0.442255 0.0602683 
0.226811 -0.445142 0.020133 
0.226811 -0.445142 -0.020133 
0.22534 -0.442255 -0.0602683 
0.222408 -0.4365 -0.100013 
0.218033 -0.427914 -0.139109 
0.212244 -0.416553 -0.177302 
0.205079 -0.40249 -0.214346 
0.196584 -0.385817 -0.25 
0.186813 -0.366642 -0.284032 
0.175832 -0.345089 -0.316223 
0.16371 -0.321298 -0.346362 
0.150526 -0.295423 -0.374255 
0.136366 -0.267633 -0.399721 
0.121321 -0.238106 -0.422595 
0.10549 -0.207036 -0.442728 
0.0889746 -0.174622 -0.45999 
0.0718821 -0.141077 -0.474268 
0.0543235 -0.106616 -0.485471 
0.0364126 -0.0714637 -0.493525 
0.0471437 -0.0648877 0.493525 
0.0703331 -0.0968052 0.485471 
0.0930664 -0.128095 0.474268 
0.115196 -0.158554 0.45999 
0.136579 -0.187984 0.442728 
0.157076 -0.216196 0.422595 
0.176554 -0.243005 0.399721 
0.194887 -0.268239 0.374255 
0.211956 -0.291733 0.346362 
0.227651 -0.313334 0.316223 
0.241869 -0.332904 0.284032 
0.254518 -0.350315 0.25 
0.265517 -0.365453 0.214346 
0.274794 -0.378222 0.177302 
0.282289 -0.388538 0.139109 
0.287953 -0.396334 0.100013 
0.29175 -0.401559 0.0602683 
0.293654 -0.40418 0.020133 
0.293654 -0.40418 -0.020133 
0.29175 -0.401559 -0.0602683 
0.287953 -0.396334 -0.100013 
0.282289 -0.388538 -0.139109 
0.274794 -0.378222 -0.177302 
0.265517 -0.365453 -0.214346 
0.254518 -0.350315 -0.25 
0.241869 -0.332904 -0.284032 
0.227651 -0.313334 -0.316223 
0.211956 -0.291733 -0.346362 
0.194887 -0.268239 -0.374255 
0.176554 -0.243005 -0.399721 
0.157076 -0.216196 -0.422595 
0.136579 -0.187984 -0.442728 
0.115196 -0.158554 -0.45999 
0.0930664 -0.128095 -0.474268 
0.0703331 -0.0968052 -0.485471 
0.0471437 -0.0648877 -0.493525 
0.056714 -0.056714 0.493525 
0.0846109 -0.0846109 0.485471 
0.111959 -0.111959 0.474268 
0.138581 -0.138581 0.45999 
0.164304 -0.164304 0.442728 
0.188962 -0.188962 0.422595 
0.212394 -0.212394 0.399721 
0.234449 -0.234449 0.374255 
0.254984 -0.254984 0.346362 
0.273864 -0.273864 0.316223 
0.290969 -0.290969 0.284032 
0.306186 -0.306186 0.25 
0.319418 -0.319418 0.214346 
0.330578 -0.330578 0.177302 
0.339594 -0.339594 0.139109 
0.346408 -0.346408 0.100013 
0.350976 -0.350976 0.0602683 
0.353267 -0.353267 0.020133 
0.353267 -0.353267 -0.020133 
0.350976 -0.350976 -0.0602683 
0.346408 -0.346408 -0.100013 
0.339594 -0.339594 -0.139109 
0.330578 -0.330578 -0.177302 
0.319418 -0.319418 -0.214346 
0.306186 -0.306186 -0.25 
0.290969 -0.290969 -0.284032 
0.273864 -0.273864 -0.316223 
0.254984 -0.254984 -0.346362 
0.234449 -0.234449 -0.374255 
0.212394 -0.212394 -0.399721 
0.188962 -0.188962 -0.422595 
0.164304 -0.164304 -0.442728 
0.138581 -0.138581 -0.45999 
0.111959 -0.111959 -0.474268 
0.0846109 -0.0846109 -0.485471 
0.056714 -0.056714 -0.493525 
0.0648877 -0.0471437 0.493525 
0.0968052 -0.0703331 0.485471 
0.128095 -0.0930664 0.474268 
0.158554 -0.115196 0.45999 
0.187984 -0.136579 0.442728 
0.216196 -0.157076 0.422595 
0.243005 -0.176554 0.399721 
0.268239 -0.194887 0.374255 
0.291733 -0.211956 0.346362 
0.313334 -0.227651 0.316223 
0.332904 -0.241869 0.284032 
0.350315 -0.254518 0.25 
0.365453 -0.265517 0.214346 
0.378222 -0.274794 0.177302 
0.388538 -0.282289 0.139109 
0.396334 -0.287953 0.100013 
0.401559 -0.29175 0.0602683 
0.40418 -0.293654 0.020133 
0.40418 -0.293654 -0.020133 
0.401559 -0.29175 -0.0602683 
0.396334 -0.287953 -0.100013 
0.388538 -0.282289 -0.139109 
0.378222 -0.274794 -0.177302 
0.365453 -0.265517 -0.214346 
0.350315 -0.254518 -0.25 
0.332904 -0.241869 -0.284032 
0.313334 -0.227651 -0.316223 
0.291733 -0.211956 -0.346362 
0.268239 -0.194887 -0.374255 
0.243005 -0.176554 -0.399721 
0.216196 -0.157076 -0.422595 
0.187984 -0.136579 -0.442728 
0.158554 -0.115196 -0.45999 
0.128095 -0.0930664 -0.474268 
0.0968052 -0.0703331 -0.485471 
0.0648877 -0.0471437 -0.493525 
0.0714637 -0.0364126 0.493525 
0.106616 -0.0543235 0.485471 
0.141077 -0.0718821 0.474268 
0.174622 -0.0889746 0.45999 
0.207036 -0.10549 0.442728 
0.238106 -0.121321 0.422595 
0.267633 -0.136366 0.399721 
0.295423 -0.150526 0.374255 
0.321298 -0.16371 0.346362 
0.345089 -0.175832 0.316223 
0.366642 -0.186813 0.284032 
0.385817 -0.196584 0.25 
0.40249 -0.205079 0.214346 
0.416553 -0.212244 0.177302 
0.427914 -0.218033 0.139109 
0.4365 -0.222408 0.100013 
0.442255 -0.22534 0.0602683 
0.445142 -0.226811 0.020133 
0.445142 -0.226811 -0.020133 
0.442255 -0.22534 -0.0602683 
0.4365 -0.222408 -0.100013 
0.427914 -0.218033 -0.139109 
0.416553 -0.212244 -0.177302 
0.40249 -0.205079 -0.214346 
0.385817 -0.196584 -0.25 
0.366642 -0.186813 -0.284032 
0.345089 -0.175832 -0.316223 
0.321298 -0.16371 -0.346362 
0.295423 -0.150526 -0.374255 
0.267633 -0.136366 -0.399721 
0.238106 -0.121321 -0.422595 
0.207036 -0.10549 -0.442728 
0.174622 -0.0889746 -0.45999 
0.141077 -0.0718821 -0.474268 
0.106616 -0.0543235 -0.485471 
0.0714637 -0.0364126 -0.493525 
0.0762801 -0.0247849 0.493525 
0.113801 -0.0369763 0.485471 
0.150585 -0.0489279 0.474268 
0.186391 -0.0605622 0.45999 
0.220989 -0.0718037 0.442728 
0.254154 -0.0825795 0.422595 
0.28567 -0.0928198 0.399721 
0.315334 -0.102458 0.374255 
0.342952 -0.111432 0.346362 
0.368347 -0.119683 0.316223 
0.391352 -0.127158 0.284032 
0.41182 -0.133808 0.25 
0.429616 -0.139591 0.214346 
0.444627 -0.144468 0.177302 
0.456753 -0.148408 0.139109 
0.465918 -0.151386 0.100013 
0.472061 -0.153382 0.0602683 
0.475143 -0.154383 0.020133 
0.475143 -0.154383 -0.020133 
0.472061 -0.153382 -0.0602683 
0.465918 -0.151386 -0.100013 
0.456753 -0.148408 -0.139109 
0.444627 -0.144468 -0.177302 
0.429616 -0.139591 -0.214346 
0.41182 -0.133808 -0.25 
0.391352 -0.127158 -0.284032 
0.368347 -0.119683 -0.316223 
0.342952 -0.111432 -0.346362 
0.315334 -0.102458 -0.374255 
0.28567 -0.0928198 -0.399721 
0.254154 -0.0825795 -0.422595 
0.220989 -0.0718037 -0.442728 
0.186391 -0.0605622 -0.45999 
0.150585 -0.0489279 -0.474268 
0.113801 -0.0369763 -0.485471 
0.0762801 -0.0247849 -0.493525 
0.0792182 -0.0125469 0.493525 
0.118185 -0.0187186 0.485471 
0.156385 -0.0247689 0.474268 
0.19357 -0.0306585 0.45999 
0.229501 -0.0363494 0.442728 
0.263943 -0.0418044 0.422595 
0.296673 -0.0469884 0.399721 
0.327479 -0.0518676 0.374255 
0.356162 -0.0564105 0.346362 
0.382534 -0.0605875 0.316223 
0.406426 -0.0643715 0.284032 
0.427682 -0.0677381 0.25 
0.446164 -0.0706654 0.214346 
0.461752 -0.0731344 0.177302 
0.474346 -0.0751291 0.139109 
0.483864 -0.0766365 0.100013 
0.490243 -0.0776469 0.0602683 
0.493444 -0.0781538 0.020133 
0.493444 -0.0781538 -0.020133 
0.490243 -0.0776469 -0.0602683 
0.483864 -0.0766365 -0.100013 
0.474346 -0.0751291 -0.139109 
0.461752 -0.0731344 -0.177302 
0.446164 -0.0706654 -0.214346 
0.427682 -0.0677381 -0.25 
0.406426 -0.0643715 -0.284032 
0.382534 -0.0605875 -0.316223 
0.356162 -0.0564105 -0.346362 
0.327479 -0.0518676 -0.374255 
0.296673 -0.0469884 -0.399721 
0.263943 -0.0418044 -0.422595 
0.229501 -0.0363494 -0.442728 
0.19357 -0.0306585 -0.45999 
0.156385 -0.0247689 -0.474268 
0.118185 -0.0187186 -0.485471 
0.0792182 -0.0125469 -0.493525 
3 0 1 2
3 1 3 2
3 3 4 2
3 4 5 2
3 5 6 2
3 6 7 2
3 7 8 2
3 8 9 2
3 9 10 2
3 10 11 2
3 11 12 2
3 12 13 2
3 13 14 2
3 14 15 2
3 15 16 2
3 16 17 2
3 17 18 2
3 18 19 2
3 19 20 2
3 20 21 2
3 21 22 2
3 22 23 2
3 23 24 2
3 24 25 2
3 25 26 2
3 26 27 2
3 27 28 2
3 28 29 2
3 29 30 2
3 30 31 2
3 31 32 2
3 32 33 2
3 33 34 2
3 34 35 2
3 35 36 2
3 36 37 2
3 37 38 2
3 38 39 2
3 39 40 2
3 40 0 2
3 41 42 43
3 43 42 44
3 44 42 45
3 45 42 46
3 46 42 47
3 47 42 48
3 48 42 49
3 49 42 50
3 50 42 51
3 51 42 52
3 52 42 53
3 53 42 54
3 54 42 55
3 55 42 56
3 56 42 57
3 57 42 58
3 58 42 59
3 59 42 60
3 60 42 61
3 61 42 62
3 62 42 63
3 63 42 64
3 64 42 65
3 65 42 66
3 66 42 67
3 67 42 68
3 68 42 69
3 69 42 70
3 70 42 71
3 71 42 72
3 72 42 73
3 73 42 74
3 74 42 75
3 75 42 76
3 76 42 77
3 77 42 78
3 78 42 79
3 79 42 80
3 80 42 81
3 81 42 41
3 0 82 83
3 0 83 1
3 82 84 85
3 82 85 83
3 84 86 87
3 84 87 85
3 86 88 89
3 86 89 87
3 88 90 91
3 88 91 89
3 90 92 93
3 90 93 91
3 92 94 95
3 92 95 93
3 94 96 97
3 94 97 95
3 96 98 99
3 96 99 97
3 98 100 101
3 98 101 99
3 100 102 103
3 100 103 101
3 102 104 105
3 102 105 103
3 104 106 107
3 104 107 105
3 106 108 109
3 106 109 107
3 108 110 111
3 108 111 109
3 110 112 113
3 110 113 111
3 112 114 115
3 112 115 113
3 114 116 117
3 114 117 115
3 116 118 119
3 116 119 117
3 118 120 121
3 118 121 119
3 120 122 123
3 120 123 121
3 122 124 125
3 122 125 123
3 124 126 127
3 124 127 125
3 126 128 129
3 126 129 127
3 128 130 131
3 128 131 129
3 130 132 133
3 130 133 131
3 132 134 135
3 132 135 133
3 134 136 137
3 134 137 135
3 136 138 139
3 136 139 137
3 138 140 141
3 138 141 139
3 140 142 143
3 140 143 141
3 142 144 145
3 142 145 143
3 144 146 147
3 144 147 145
3 146 148 149
3 146 149 147
3 148 150 151
3 148 151 149
3 150 152 153
3 150 153 151
3 152 41 43
3 152 43 153
3 1 83 154
3 1 154 3
3 83 85 155
3 83 155 154
3 85 87 156
3 85 156 155
3 87 89 157
3 87 157 156
3 89 91 158
3 89 158 157
3 91 93 159
3 91 159 158
3 93 95 160
3 93 160 159
3 95 97 161
3 95 161 160
3 97 99 162
3 97 162 161
3 99 101 163
3 99 163 162
3 101 103 164
3 101 164 163
3 103 105 165
3 103 165 164
3 105 107 166
3 105 166 165
3 107 109 167
3 107 167 166
3 109 111 168
3 109 168 167
3 111 113 169
3 111 169 168
3 113 115 170
3 113 170 169
3 115 117 171
3 115 171 170
3 117 119 172
3 117 172 171
3 119 121 173
3 119 173 172
3 121 123 174
3 121 174 173
3 123 125 175
3 123 175 174
3 125 127 176
3 125 176 175
3 127 129 177
3 127 177 176
3 129 131 178
3 129 178 177
3 131 133 179
3 131 179 178
3 133 135 180
3 133 180 179
3 135 137 181
3 135 181 180
3 137 139 182
3 137 182 181
3 139 141 183
3 139 183 182
3 141 143 184
3 141 184 183
3 143 145 185
3 143 185 184
3 145 147 186
3 145 186 185
3 147 149 187
3 147 187 186
3 149 151 188
3 149 188 187
3 151 153 189
3 151 189 188
3 153 43 44
3 153 44 189
3 3 154 190
3 3 190 4
3 154 155 191
3 154 191 190
3 155 156 192
3 155 192 191
3 156 157 193
3 156 193 192
3 157 158 194
3 157 194 193
3 158 159 195
3 158 195 194
3 159 160 196
3 159 196 195
3 160 161 197
3 160 197 196
3 161 162 198
3 161 198 197
3 162 163 199
3 162 199 198
3 163 164 200
3 163 200 199
3 164 165 201
3 164 201 200
3 165 166 202
3 165 202 201
3 166 167 203
3 166 203 202
3 167 168 204
3 167 204 203
3 168 169 205
3 168 205 204
3 169 170 206
3 169 206 205
3 170 171 207
3 170 207 206
3 171 172 208
3 171 208 207
3 172 173 209
3 172 209 208
3 173 174 210
3 173 210 209
3 174 175 211
3 174 211 210
3 175 176 212
3 175 212 211
3 176 177 213
3 176 213 212
3 177 178 214
3 177 214 213
3 178 179 215
3 178 215 214
3 179 180 216
3 179 216 215
3 180 181 217
3 180 217 216
3 181 182 218
3 181 218 217
3 182 183 219
3 182 219 218
3 183 184 220
3 183 220 219
3 184 185 221
3 184 221 220
3 185 186 222
3 185 222 221
3 186 187 223
3 186 223 222
3 187 188 224
3 187 224 223
3 188 189 225
3 188 225 224
3 189 44 45
3 189 45 225
3 4 190 226
3 4 226 5
3 190 191 227
3 190 227 226
3 191 192 228
3 191 228 227
3 192 193 229
3 192 229 228
3 193 194 230
3 193 230 229
3 194 195 231
3 194 231 230
3 195 196 232
3 195 232 231
3 196 197 233
3 196 233 232
3 197 198 234
3 197 234 233
3 198 199 235
3 198 235 234
3 199 200 236
3 199 236 235
3 200 201 237
3 200 237 236
3 201 202 238
3 201 238 237
3 202 203 239
3 202 239 238
3 203 204 240
3 203 240 239
3 204 205 241
3 204 241 240
3 205 206 242
3 205 242 241
3 206 207 243
3 206 243 242
3 207 208 244
3 207 244 243
3 208 209 245
3 208 245 244
3 209 210 246
3 209 246 245
3 210 211 247
3 210 247 246
3 211 212 248
3 211 248 247
3 212 213 249
3 212 249 248
3 213 214 250
3 213 250 249
3 214 215 251
3 214 251 250
3 215 216 252
3 215 252 251
3 216 217 253
3 216 253 252
3 217 218 254
3 217 254 253
3 218 219 255
3 218 255 254
3 219 220 256
3 219 256 255
3 220 221 257
3 220 257 256
3 221 222 258
3 221 258 257
3 222 223 259
3 222 259 258
3 223 224 260
3 223 260 259
3 224 225 261
3 224 261 260
3 225 45 46
3 225 46 261
3 5 226 262
3 5 262 6
3 226 227 263
3 226 263 262
3 227 228 264
3 227 264 263
3 228 229 265
3 228 265 264
3 229 230 266
3 229 266 265
3 230 231 267
3 230 267 266
3 231 232 268
3 231 268 267
3 232 233 269
3 232 269 268
3 233 234 270
3 233 270 269
3 234 235 271
3 234 271 270
3 235 236 272
3 235 272 271
3 236 237 273
3 236 273 272
3 237 238 274
3 237 274 273
3 238 239 275
3 238 275 274
3 239 240 276
3 239 276 275
3 240 241 277
3 240 277 276
3 241 242 278
3 241 278 277
3 242 243 279
3 242 279 278
3 243 244 280
3 243 280 279
3 244 245 281
3 244 281 280
3 245 246 282
3 245 282 281
3 246 247 283
3 246 283 282
3 247 248 284
3 247 284 283
3 248 249 285
3 248 285 284
3 249 250 286
3 249 286 285
3 250 251 287
3 250 287 286
3 251 252 288
3 251 288 287
3 252 253 289
3 252 289 288
3 253 254 290
3 253 290 289
3 254 255 291
3 254 291 290
3 255 256 292
3 255 292 291
3 256 257 293
3 256 293 292
3 257 258 294
3 257 294 293
3 258 259 295
3 258 295 294
3 259 260 296
3 259 296 295
3 260 261 297
3 260 297 296
3 261 46 47
3 261 47 297
3 6 262 298
3 6 298 7
3 262 263 299
3 262 299 298
3 263 264 300
3 263 300 299
3 264 265 301
3 264 301 300
3 265 266 302
3 265 302 301
3 266 267 303
3 266 303 302
3 267 268 304
3 267 304 303
3 268 269 305
3 268 305 304
3 269 270 306
3 269 306 305
3 270 271 307
3 270 307 306
3 271 272 308
3 271 308 307
3 272 273 309
3 272 309 308
3 273 274 310
3 273 310 309
3 274 275 311
3 274 311 310
3 275 276 312
3 275 312 311
3 276 277 313
3 276 313 312
3 277 278 314
3 277 314 313
3 278 279 315
3 278 315 314
3 279 280 316
3 279 316 315
3 280 281 317
3 280 317 316
3 281 282 318
3 281 318 317
3 282 283 319
3 282 319 318
3 283 284 320
3 283 320 319
3 284 285 321
3 284 321 320
3 285 286 322
3 285 322 321
3 286 287 323
3 286 323 322
3 287 288 324
3 287 324 323
3 288 289 325
3 288 325 324
3 289 290 326
3 289 326 325
3 290 291 327
3 290 327 326
3 291 292 328
3 291 328 327
3 292 293 329
3 292 329 328
3 293 294 330
3 293 330 329
3 294 295 331
3 294 331 330
3 295 296 332
3 295 332 331
3 296 297 333
3 296 333 332
3 297 47 48
3 297 48 333
3 7 298 334
3 7 334 8
3 298 299 335
3 298 335 334
3 299 300 336
3 299 336 335
3 300 301 337
3 300 337 336
3 301 302 338
3 301 338 337
3 302 303 339
3 302 339 338
3 303 304 340
3 303 340 339
3 304 305 341
3 304 341 340
3 305 306 342
3 305 342 341
3 306 307 343
3 306 343 342
3 307 308 344
3 307 344 343
3 308 309 345
3 308 345 344
3 309 310 346
3 309 346 345
3 310 311 347
3 310 347 346
3 311 312 348
3 311 348 347
3 312 313 349
3 312 349 348
3 313 314 350
3 313 350 349
3 314 315 351
3 314 351 350
3 315 316 352
3 315 352 351
3 316 317 353
3 316 353 352
3 317 318 354
3 317 354 353
3 318 319 355
3 318 355 354
3 319 320 356
3 319 356 355
3 320 321 357
3 320 357 356
3 321 322 358
3 321 358 357
3 322 323 359
3 322 359 358
3 323 324 360
3 323 360 359
3 324 325 361
3 324 361 360
3 325 326 362
3 325 362 361
3 326 327 363
3 326 363 362
3 327 328 364
3 327 364 363
3 328 329 365
3 328 365 364
3 329 330 366
3 329 366 365
3 330 331 367
3 330 367 366
3 331 332 368
3 331 368 367
3 332 333 369
3 332 369 368
3 333 48 49
3 333 49 369
3 8 334 370
3 8 370 9
3 334 335 371
3 334 371 370
3 335 336 372
3 335 372 371
3 336 337 373
3 336 373 372
3 337 338 374
3 337 374 373
3 338 339 375
3 338 375 374
3 339 340 376
3 339 376 375
3 340 341 377
3 340 377 376
3 341 342 378
3 341 378 377
3 342 343 379
3 342 379 378
3 343 344 380
3 343 380 379
3 344 345 381
3 344 381 380
3 345 346 382
3 345 382 381
3 346 347 383
3 346 383 382
3 347 348 384
3 347 384 383
3 348 349 385
3 348 385 384
3 349 350 386
3 349 386 385
3 350 351 387
3 350 387 386
3 351 352 388
3 351 388 387
3 352 353 389
3 352 389 388
3 353 354 390
3 353 390 389
3 354 355 391
3 354 391 390
3 355 356 392
3 355 392 391
3 356 357 393
3 356 393 392
3 357 358 394
3 357 394 393
3 358 359 395
3 358 395 394
3 359 360 396
3 359 396 395
3 360 361 397
3 360 397 396
3 361 362 398
3 361 398 397
3 362 363 399
3 362 399 398
3 363 364 400
3 363 400 399
3 364 365 401
3 364 401 400
3 365 366 402
3 365 402 401
3 366 367 403
3 366 403 402
3 367 368 404
3 367 404 403
3 368 369 405
3 368 405 404
3 369 49 50
3 369 50 405
3 9 370 406
3 9 406 10
3 370 371 407
3 370 407 406
3 371 372 408
3 371 408 407
3 372 373 409
3 372 409 408
3 373 374 410
3 373 410 409
3 374 375 411
3 374 411 410
3 375 376 412
3 375 412 411
3 376 377 413
3 376 413 412
3 377 378 414
3 377 414 413
3 378 379 415
3 378 415 414
3 379 380 416
3 379 416 415
3 380 381 417
3 380 417 416
3 381 382 418
3 381 418 417
3 382 383 419
3 382 419 418
3 383 384 420
3 383 420 419
3 384 385 421
3 384 421 420
3 385 386 422
3 385 422 421
3 386 387 423
3 386 423 422
3 387 388 424
3 387 424 423
3 388 389 425
3 388 425 424
3 389 390 426
3 389 426 425
3 390 391 427
3 390 427 426
3 391 392 428
3 391 428 427
3 392 393 429
3 392 429 428
3 393 394 430
3 393 430 429
3 394 395 431
3 394 431 430
3 395 396 432
3 395 432 431
3 396 397 433
3 396 433 432
3 397 398 434
3 397 434 433
3 398 399 435
3 398 435 434
3 399 400 436
3 399 436 435
3 400 401 437
3 400 437 436
3 401 402 438
3 401 438 437
3 402 403 439
3 402 439 438
3 403 404 440
3 403 440 439
3 404 405 441
3 404 441 440
3 405 50 51
3 405 51 441
3 10 406 442
3 10 442 11
3 406 407 443
3 406 443 442
3 407 408 444
3 407 444 443
3 408 409 445
3 408 445 444
3 409 410 446
3 409 446 445
3 410 411 447
3 410 447 446
3 411 412 448
3 411 448 447
3 412 413 449
3 412 449 448
3 413 414 450
3 413 450 449
3 414 415 451
3 414 451 450
3 415 416 452
3 415 452 451
3 416 417 453
3 416 453 452
3 417 418 454
3 417 454 453
3 418 419 455
3 418 455 454
3 419 420 456
3 419 456 455
3 420 421 457
3 420 457 456
3 421 422 458
3 421 458 457
3 422 423 459
3 422 459 458
3 423 424 460
3 423 460 459
3 424 425 461
3 424 461 460
3 425 426 462
3 425 462 461
3 426 427 463
3 426 463 462
3 427 428 464
3 427 464 463
3 428 429 465
3 428 465 464
3 429 430 466
3 429 466 465
3 430 431 467
3 430 467 466
3 431 432 468
3 431 468 467
3 432 433 469
3 432 469 468
3 433 434 470
3 433 470 469
3 434 435 471
3 434 471 470
3 435 436 472
3 435 472 471
3 436 437 473
3 436 473 472
3 437 438 474
3 437 474 473
3 438 439 475
3 438 475 474
3 439 440 476
3 439 476 475
3 440 441 477
3 440 477 476
3 441 51 52
3 441 52 477
3 11 442 478
3 11 478 12
3 442 443 479
3 442 479 478
3 443 444 480
3 443 480 479
3 444 445 481
3 444 481 480
3 445 446 482
3 445 482 481
3 446 447 483
3 446 483 482
3 447 448 484
3 447 484 483
3 448 449 485
3 448 485 484
3 449 450 486
3 449 486 485
3 450 451 487
3 450 487 486
3 451 452 488
3 451 488 487
3 452 453 489
3 452 489 488
3 453 454 490
3 453 490 489
3 454 455 491
3 454 491 490
3 455 456 492
3 455 492 491
3 456 457 493
3 456 493 492
3 457 458 494
3 457 494 493
3 458 459 495
3 458 495 494
3 459 460 496
3 459 496 495
3 460 461 497
3 460 497 496
3 461 462 498
3 461 498 497
3 462 463 499
3 462 499 498
3 463 464 500
3 463 500 499
3 464 465 501
3 464 501 500
3 465 466 502
3 465 502 501
3 466 467 503
3 466 503 502
3 467 468 504
3 467 504 503
3 468 469 505
3 468 505 504
3 469 470 506
3 469 506 505
3 470 471 507
3 470 507 506
3 471 472 508
3 471 508 507
3 472 473 509
3 472 509 508
3 473 474 510
3 473 510 509
3 474 475 511
3 474 511 510
3 475 476 512
3 475 512 511
3 476 477 513
3 476 513 512
3 477 52 53
3 477 53 513
3 12 478 514
3 12 514 13
3 478 479 515
3 478 515 514
3 479 480 516
3 479 516 515
3 480 481 517
3 480 517 516
3 481 482 518
3 481 518 517
3 482 483 519
3 482 519 518
3 483 484 520
3 483 520 519
3 484 485 521
3 484 521 520
3 485 486 522
3 485 522 521
3 486 487 523
3 486 523 522
3 487 488 524
3 487 524 523
3 488 489 525
3 488 525 524
3 489 490 526
3 489 526 525
3 490 491 527
3 490 527 526
3 491 492 528
3 491 528 527
3 492 493 529
3 492 529 528
3 493 494 530
3 493 530 529
3 494 495 531
3 494 531 530
3 495 496 532
3 495 532 531
3 496 497 533
3 496 533 532
3 497 498 534
3 497 534 533
3 498 499 535
3 498 535 534
3 499 500 536
3 499 536 535
3 500 501 537
3 500 537 536
3 501 502 538
3 501 538 537
3 502 503 539
3 502 539 538
3 503 504 540
3 503 540 539
3 504 505 541
3 504 541 540
3 505 506 542
3 505 542 541
3 506 507 543
3 506 543 542
3 507 508 544
3 507 544 543
3 508 509 545
3 508 545 544
3 509 510 546
3 509 546 545
3 510 511 547
3 510 547 546
3 511 512 548
3 511 548 547
3 512 513 549
3 512 549 548
3 513 53 54
3 513 54 549
3 13 514 550
3 13 550 14
3 514 515 551
3 514 551 550
3 515 516 552
3 515 552 551
3 516 517 553
3 516 553 552
3 517 518 554
3 517 554 553
3 518 519 555
3 518 555 554
3 519 520 556
3 519 556 555
3 520 521 557
3 520 557 556
3 521 522 558
3 521 558 557
3 522 523 559
3 522 559 558
3 523 524 560
3 523 560 559
3 524 525 561
3 524 561 560
3 525 526 562
3 525 562 561
3 526 527 563
3 526 563 562
3 527 528 564
3 527 564 563
3 528 529 565
3 528 565 564
3 529 530 566
3 529 566 565
3 530 531 567
3 530 567 566
3 531 532 568
3 531 568 567
3 532 533 569
3 532 569 568
3 533 534 570
3 533 570 569
3 534 535 571
3 534 571 570
3 535 536 572
3 535 572 571
3 536 537 573
3 536 573 572
3 537 538 574
3 537 574 573
3 538 539 575
3 538 575 574
3 539 540 576
3 539 576 575
3 540 541 577
3 540 577 576
3 541 542 578
3 541 578 577
3 542 543 579
3 542 579 578
3 543 544 580
3 543 580 579
3 544 545 581
3 544 581 580
3 545 546 582
3 545 582 581
3 546 547 583
3 546 583 582
3 547 548 584
3 547 584 583
3 548 549 585
3 548 585 584
3 549 54 55
3 549 55 585
3 14 550 586
3 14 586 15
3 550 551 587
3 550 587 586
3 551 552 588
3 551 588 587
3 552 553 589
3 552 589 588
3 553 554 590
3 553 590 589
3 554 555 591
3 554 591 590
3 555 556 592
3 555 592 591
3 556 557 593
3 556 593 592
3 557 558 594
3 557 594 593
3 558 559 595
3 558 595 594
3 559 560 596
3 559 596 595
3 560 561 597
3 560 597 596
3 561 562 598
3 561 598 597
3 562 563 599
3 562 599 598
3 563 564 600
3 563 600 599
3 564 565 601
3 564 601 600
3 565 566 602
3 565 602 601
3 566 567 603
3 566 603 602
3 567 568 604
3 567 604 603
3 568 569 605
3 568 605 604
3 569 570 606
3 569 606 605
3 570 571 607
3 570 607 606
3 571 572 608
3 571 608 607
3 572 573 609
3 572 609 608
3 573 574 610
3 573 610 609
3 574 575 611
3 574 611 610
3 575 576 612
3 575 612 611
3 576 577 613
3 576 613 612
3 577 578 614
3 577 614 613
3 578 579 615
3 578 615 614
3 579 580 616
3 579 616 615
3 580 581 617
3 580 617 616
3 581 582 618
3 581 618 617
3 582 583 619
3 582 619 618
3 583 584 620
3 583 620 619
3 584 585 621
3 584 621 620
3 585 55 56
3 585 56 621
3 15 586 622
3 15 622 16
3 586 587 623
3 586 623 622
3 587 588 624
3 587 624 623
3 588 589 625
3 588 625 624
3 589 590 626
3 589 626 625
3 590 591 627
3 590 627 626
3 591 592 628
3 591 628 627
3 592 593 629
3 592 629 628
3 593 594 630
3 593 630 629
3 594 595 631
3 594 631 630
3 595 596 632
3 595 632 631
3 596 597 633
3 596 633 632
3 597 598 634
3 597 634 633
3 598 599 635
3 598 635 634
3 599 600 636
3 599 636 635
3 600 601 637
3 600 637 636
3 601 602 638
3 601 638 637
3 602 603 639
3 602 639 638
3 603 604 640
3 603 640 639
3 604 605 641
3 604 641 640
3 605 606 642
3 605 642 641
3 606 607 643
3 606 643 642
3 607 608 644
3 607 644 643
3 608 609 645
3 608 645 644
3 609 610 646
3 609 646 645
3 610 611 647
3 610 647 646
3 611 612 648
3 611 648 647
3 612 613 649
3 612 649 648
3 613 614 650
3 613 650 649
3 614 615 651
3 614 651 650
3 615 616 652
3 615 652 651
3 616 617 653
3 616 653 652
3 617 618 654
3 617 654 653
3 618 619 655
3 618 655 654
3 619 620 656
3 619 656 655
3 620 621 657
3 620 657 656
3 621 56 57
3 621 57 657
3 16 622 658
3 16 658 17
3 622 623 659
3 622 659 658
3 623 624 660
3 623 660 659
3 624 625 661
3 624 661 660
3 625 626 662
3 625 662 661
3 626 627 663
3 626 663 662
3 627 628 664
3 627 664 663
3 628 629 665
3 628 665 664
3 629 630 666
3 629 666 665
3 630 631 667
3 630 667 666
3 631 632 668
3 631 668 667
3 632 633 669
3 632 669 668
3 633 634 670
3 633 670 669
3 634 635 671
3 634 671 670
3 635 636 672
3 635 672 671
3 636 637 673
3 636 673 672
3 637 638 674
3 637 674 673
3 638 639 675
3 638 675 674
3 639 640 676
3 639 676 675
3 640 641 677
3 640 677 676
3 641 642 678
3 641 678 677
3 642 643 679
3 642 679 678
3 643 644 680
3 643 680 679
3 644 645 681
3 644 681 680
3 645 646 682
3 645 682 681
3 646 647 683
3 646 683 682
3 647 648 684
3 647 684 683
3 648 649 685
3 648 685 684
3 649 650 686
3 649 686 685
3 650 651 687
3 650 687 686
3 651 652 688
3 651 688 687
3 652 653 689
3 652 689 688
3 653 654 690
3 653 690 689
3 654 655 691
3 654 691 690
3 655 656 692
3 655 692 691
3 656 657 693
3 656 693 692
3 657 57 58
3 657 58 693
3 17 658 694
3 17 694 18
3 658 659 695
3 658 695 694
3 659 660 696
3 659 696 695
3 660 661 697
3 660 697 696
3 661 662 698
3 661 698 697
3 662 663 699
3 662 699 698
3 663 664 700
3 663 700 699
3 664 665 701
3 664 701 700
3 665 666 702
3 665 702 701
3 666 667 703
3 666 703 702
3 667 668 704
3 667 704 703
3 668 669 705
3 668 705 704
3 669 670 706
3 669 706 705
3 670 671 707
3 670 707 706
3 671 672 708
3 671 708 707
3 672 673 709
3 672 709 708
3 673 674 710
3 673 710 709
3 674 675 711
3 674 711 710
3 675 676 712
3 675 712 711
3 676 677 713
3 676 713 712
3 677 678 714
3 677 714 713
3 678 679 715
3 678 715 714
3 679 680 716
3 679 716 715
3 680 681 717
3 680 717 716
3 681 682 718
3 681 718 717
3 682 683 719
3 682 719 718
3 683 684 720
3 683 720 719
3 684 685 721
3 684 721 720
3 685 686 722
3 685 722 721
3 686 687 723
3 686 723 722
3 687 688 724
3 687 724 723
3 688 689 725
3 688 725 724
3 689 690 726
3 689 726 725
3 690 691 727
3 690 727 726
3 691 692 728
3 691 728 727
3 692 693 729
3 692 729 728
3 693 58 59
3 693 59 729
3 18 694 730
3 18 730 19
3 694 695 731
3 694 731 730
3 695 696 732
3 695 732 731
3 696 697 733
3 696 733 732
3 697 698 734
3 697 734 733
3 698 699 735
3 698 735 734
3 699 700 736
3 699 736 735
3 700 701 737
3 700 737 736
3 701 702 738
3 701 738 737
3 702 703 739
3 702 739 738
3 703 704 740
3 703 740 739
3 704 705 741
3 704 741 740
3 705 706 742
3 705 742 741
3 706 707 743
3 706 743 742
3 707 708 744
3 707 744 743
3 708 709 745
3 708 745 744
3 709 710 746
3 709 746 745
3 710 711 747
3 710 747 746
3 711 712 748
3 711 748 747
3 712 713 749
3 712 749 748
3 713 714 750
3 713 750 749
3 714 715 751
3 714 751 750
3 715 716 752
3 715 752 751
3 716 717 753
3 716 753 752
3 717 718 754
3 717 754 753
3 718 719 755
3 718 755 754
3 719 720 756
3 719 756 755
3 720 721 757
3 720 757 756
3 721 722 758
3 721 758 757
3 722 723 759
3 722 759 758
3 723 724 760
3 723 760 759
3 724 725 761
3 724 761 760
3 725 726 762
3 725 762 761
3 726 727 763
3 726 763 762
3 727 728 764
3 727 764 763
3 728 729 765
3 728 765 764
3 729 59 60
3 729 60 765
3 19 730 766
3 19 766 20
3 730 731 767
3 730 767 766
3 731 732 768
3 731 768 767
3 732 733 769
3 732 769 768
3 733 734 770
3 733 770 769
3 734 735 771
3 734 771 770
3 735 736 772
3 735 772 771
3 736 737 773
3 736 773 772
3 737 738 774
3 737 774 773
3 738 739 775
3 738 775 774
3 739 740 776
3 739 776 775
3 740 741 777
3 740 777 776
3 741 742 778
3 741 778 777
3 742 743 779
3 742 779 778
3 743 744 780
3 743 780 779
3 744 745 781
3 744 781 780
3 745 746 782
3 745 782 781
3 746 747 783
3 746 783 782
3 747 748 784
3 747 784 783
3 748 749 785
3 748 785 784
3 749 750 786
3 749 786 785
3 750 751 787
3 750 787 786
3 751 752 788
3 751 788 787
3 752 753 789
3 752 789 788
3 753 754 790
3 753 790 789
3 754 755 791
3 754 791 790
3 755 756 792
3 755 792 791
3 756 757 793
3 756 793 792
3 757 758 794
3 757 794 793
3 758 759 795
3 758 795 794
3 759 760 796
3 759 796 795
3 760 761 797
3 760 797 796
3 761 762 798
3 761 798 797
3 762 763 799
3 762 799 798
3 763 764 800
3 763 800 799
3 764 765 801
3 764 801 800
3 765 60 61
3 765 61 801
3 20 766 802
3 20 802 21
3 766 767 803
3 766 803 802
3 767 768 804
3 767 804 803
3 768 769 805
3 768 805 804
3 769 770 806
3 769 806 805
3 770 771 807
3 770 807 806
3 771 772 808
3 771 808 807
3 772 773 809
3 772 809 808
3 773 774 810
3 773 810 809
3 774 775 811
3 774 811 810
3 775 776 812
3 775 812 811
3 776 777 813
3 776 813 812
3 777 778 814
3 777 814 813
3 778 779 815
3 778 815 814
3 779 780 816
3 779 816 815
3 780 781 817
3 780 817 816
3 781 782 818
3 781 818 817
3 782 783 819
3 782 819 818
3 783 784 820
3 783 820 819
3 784 785 821
3 784 821 820
3 785 786 822
3 785 822 821
3 786 787 823
3 786 823 822
3 787 788 824
3 787 824 823
3 788 789 825
3 788 825 824
3 789 790 826
3 789 826 825
3 790 791 827
3 790 827 826
3 791 792 828
3 791 828 827
3 792 793 829
3 792 829 828
3 793 794 830
3 793 830 829
3 794 795 831
3 794 831 830
3 795 796 832
3 795 832 831
3 796 797 833
3 796 833 832
3 797 798 834
3 797 834 833
3 798 799 835
3 798 835 834
3 799 800 836
3 799 836 835
3 800 801 837
3 800 837 836
3 801 61 62
3 801 62 837
3 21 802 838
3 21 838 22
3 802 803 839
3 802 839 838
3 803 804 840
3 803 840 839
3 804 805 841
3 804 841 840
3 805 806 842
3 805 842 841
3 806 807 843
3 806 843 842
3 807 808 844
3 807 844 843
3 808 809 845
3 808 845 844
3 809 810 846
3 809 846 845
3 810 811 847
3 810 847 846
3 811 812 848
3 811 848 847
3 812 813 849
3 812 849 848
3 813 814 850
3 813 850 849
3 814 815 851
3 814 851 850
3 815 816 852
3 815 852 851
3 816 817 853
3 816 853 852
3 817 818 854
3 817 854 853
3 818 819 855
3 818 855 854
3 819 820 856
3 819 856 855
3 820 821 857
3 820 857 856
3 821 822 858
3 821 858 857
3 822 823 859
3 822 859 858
3 823 824 860
3 823 860 859
3 824 825 861
3 824 861 860
3 825 826 862
3 825 862 861
3 826 827 863
3 826 863 862
3 827 828 864
3 827 864 863
3 828 829 865
3 828 865 864
3 829 830 866
3 829 866 865
3 830 831 867
3 830 867 866
3 831 832 868
3 831 868 867
3 832 833 869
3 832 869 868
3 833 834 870
3 833 870 869
3 834 835 871
3 834 871 870
3 835 836 872
3 835 872 871
3 836 837 873
3 836 873 872
3 837 62 63
3 837 63 873
3 22 838 874
3 22 874 23
3 838 839 875
3 838 875 874
3 839 840 876
3 839 876 875
3 840 841 877
3 840 877 876
3 841 842 878
3 841 878 877
3 842 843 879
3 842 879 878
3 843 844 880
3 843 880 879
3 844 845 881
3 844 881 880
3 845 846 882
3 845 882 881
3 846 847 883
3 846 883 882
3 847 848 884
3 847 884 883
3 848 849 885
3 848 885 884
3 849 850 886
3 849 886 885
3 850 851 887
3 850 887 886
3 851 852 888
3 851 888 887
3 852 853 889
3 852 889 888
3 853 854 890
3 853 890 889
3 854 855 891
3 854 891 890
3 855 856 892
3 855 892 891
3 856 857 893
3 856 893 892
3 857 858 894
3 857 894 893
3 858 859 895
3 858 895 894
3 859 860 896
3 859 896 895
3 860 861 897
3 860 897 896
3 861 862 898
3 861 898 897
3 862 863 899
3 862 899 898
3 863 864 900
3 863 900 899
3 864 865 901
3 864 901 900
3 865 866 902
3 865 902 901
3 866 867 903
3 866 903 902
3 867 868 904
3 867 904 903
3 868 869 905
3 868 905 904
3 869 870 906
3 869 906 905
3 870 871 907
3 870 907 906
3 871 872 908
3 871 908 907
3 872 873 909
3 872 909 908
3 873 63 64
3 873 64 909
3 23 874 910
3 23 910 24
3 874 875 911
3 874 911 910
3 875 876 912
3 875 912 911
3 876 877 913
3 876 913 912
3 877 878 914
3 877 914 913
3 878 879 915
3 878 915 914
3 879 880 916
3 879 916 915
3 880 881 917
3 880 917 916
3 881 882 918
3 881 918 917
3 882 883 919
3 882 919 918
3 883 884 920
3 883 920 919
3 884 885 921
3 884 921 920
3 885 886 922
3 885 922 921
3 886 887 923
3 886 923 922
3 887 888 924
3 887 924 923
3 888 889 925
3 888 925 924
3 889 890 926
3 889 926 925
3 890 891 927
3 890 927 926
3 891 892 928
3 891 928 927
3 892 893 929
3 892 929 928
3 893 894 930
3 893 930 929
3 894 895 931
3 894 931 930
3 895 896 932
3 895 932 931
3 896 897 933
3 896 933 932
3 897 898 934
3 897 934 933
3 898 899 935
3 898 935 934
3 899 900 936
3 899 936 935
3 900 901 937
3 900 937 936
3 901 902 938
3 901 938 937
3 902 903 939
3 902 939 938
3 903 904 940
3 903 940 939
3 904 905 941
3 904 941 940
3 905 906 942
3 905 942 941
3 906 907 943
3 906 943 942
3 907 908 944
3 907 944 943
3 908 909 945
3 908 945 944
3 909 64 65
3 909 65 945
3 24 910 946
3 24 946 25
3 910 911 947
3 910 947 946
3 911 912 948
3 911 948 947
3 912 913 949
3 912 949 948
3 913 914 950
3 913 950 949
3 914 915 951
3 914 951 950
3 915 916 952
3 915 952 951
3 916 917 953
3 916 953 952
3 917 918 954
3 917 954 953
3 918 919 955
3 918 955 954
3 919 920 956
3 919 956 955
3 920 921 957
3 920 957 956
3 921 922 958
3 921 958 957
3 922 923 959
3 922 959 958
3 923 924 960
3 923 960 959
3 924 925 961
3 924 961 960
3 925 926 962
3 925 962 961
3 926 927 963
3 926 963 962
3 927 928 964
3 927 964 963
3 928 929 965
3 928 965 964
3 929 930 966
3 929 966 965
3 930 931 967
3 930 967 966
3 931 932 968
3 931 968 967
3 932 933 969
3 932 969 968
3 933 934 970
3 933 970 969
3 934 935 971
3 934 971 970
3 935 936 972
3 935 972 971
3 936 937 973
3 936 973 972
3 937 938 974
3 937 974 973
3 938 939 975
3 938 975 974
3 939 940 976
3 939 976 975
3 940 941 977
3 940 977 976
3 941 942 978
3 941 978 977
3 942 943 979
3 942 979 978
3 943 944 980
3 943 980 979
3 944 945 981
3 944 981 980
3 945 65 66
3 945 66 981
3 25 946 982
3 25 982 26
3 946 947 983
3 946 983 982
3 947 948 984
3 947 984 983
3 948 949 985
3 948 985 984
3 949 950 986
3 949 986 985
3 950 951 987
3 950 987 986
3 951 952 988
3 951 988 987
3 952 953 989
3 952 989 988
3 953 954 990
3 953 990 989
3 954 955 991
3 954 991 990
3 955 956 992
3 955 992 991
3 956 957 993
3 956 993 992
3 957 958 994
3 957 994 993
3 958 959 995
3 958 995 994
3 959 960 996
3 959 996 995
3 960 961 997
3 960 997 996
3 961 962 998
3 961 998 997
3 962 963 999
3 962 999 998
3 963 964 1000
3 963 1000 999
3 964 965 1001
3 964 1001 1000
3 965 966 1002
3 965 1002 1001
3 966 967 1003
3 966 1003 1002
3 967 968 1004
3 967 1004 1003
3 968 969 1005
3 968 1005 1004
3 969 970 1006
3 969 1006 1005
3 970 971 1007
3 970 1007 1006
3 971 972 1008
3 971 1008 1007
3 972 973 1009
3 972 1009 1008
3 973 974 1010
3 973 1010 1009
3 974 975 1011
3 974 1011 1010
3 975 976 1012
3 975 1012 1011
3 976 977 1013
3 976 1013 1012
3 977 978 1014
3 977 1014 1013
3 978 979 1015
3 978 1015 1014
3 979 980 1016
3 979 1016 1015
3 980 981 1017
3 980 1017 1016
3 981 66 67
3 981 67 1017
3 26 982 1018
3 26 1018 27
3 982 983 1019
3 982 1019 1018
3 983 984 1020
3 983 1020 1019
3 984 985 1021
3 984 1021 1020
3 985 986 1022
3 985 1022 1021
3 986 987 1023
3 986 1023 1022
3 987 988 1024
3 987 1024 1023
3 988 989 1025
3 988 1025 1024
3 989 990 1026
3 989 1026 1025
3 990 991 1027
3 990 1027 1026
3 991 992 1028
3 991 1028 1027
3 992 993 1029
3 992 1029 1028
3 993 994 1030
3 993 1030 1029
3 994 995 1031
3 994 1031 1030
3 995 996 1032
3 995 1032 1031
3 996 997 1033
3 996 1033 1032
3 997 998 1034
3 997 1034 1033
3 998 999 1035
3 998 1035 1034
3 999 1000 1036
3 999 1036 1035
3 1000 1001 1037
3 1000 1037 1036
3 1001 1002 1038
3 1001 1038 1037
3 1002 1003 1039
3 1002 1039 1038
3 1003 1004 1040
3 1003 1040 1039
3 1004 1005 1041
3 1004 1041 1040
3 1005 1006 1042
3 1005 1042 1041
3 1006 1007 1043
3 1006 1043 1042
3 1007 1008 1044
3 1007 1044 1043
3 1008 1009 1045
3 1008 1045 1044
3 1009 1010 1046
3 1009 1046 1045
3 1010 1011 1047
3 1010 1047 1046
3 1011 1012 1048
3 1011 1048 1047
3 1012 1013 1049
3 1012 1049 1048
3 1013 1014 1050
3 1013 1050 1049
3 1014 1015 1051
3 1014 1051 1050
3 1015 1016 1052
3 1015 1052 1051
3 1016 1017 1053
3 1016 1053 1052
3 1017 67 68
3 1017 68 1053
3 27 1018 1054
3 27 1054 28
3 1018 1019 1055
3 1018 1055 1054
3 1019 1020 1056
3 1019 1056 1055
3 1020 1021 1057
3 1020 1057 1056
3 1021 1022 1058
3 1021 1058 1057
3 1022 1023 1059
3 1022 1059 1058
3 1023 1024 1060
3 1023 1060 1059
3 1024 1025 1061
3 1024 1061 1060
3 1025 1026 1062
3 1025 1062 1061
3 1026 1027 1063
3 1026 1063 1062
3 1027 1028 1064
3 1027 1064 1063
3 1028 1029 1065
3 1028 1065 1064
3 1029 1030 1066
3 1029 1066 1065
3 1030 1031 1067
3 1030 1067 1066
3 1031 1032 1068
3 1031 1068 1067
3 1032 1033 1069
3 1032 1069 1068
3 1033 1034 1070
3 1033 1070 1069
3 1034 1035 1071
3 1034 1071 1070
3 1035 1036 1072
3 1035 1072 1071
3 1036 1037 1073
3 1036 1073 1072
3 1037 1038 1074
3 1037 1074 1073
3 1038 1039 1075
3 1038 1075 1074
3 1039 1040 1076
3 1039 1076 1075
3 1040 1041 1077
3 1040 1077 1076
3 1041 1042 1078
3 1041 1078 1077
3 1042 1043 1079
3 1042 1079 1078
3 1043 1044 1080
3 1043 1080 1079
3 1044 1045 1081
3 1044 1081 1080
3 1045 1046 1082
3 1045 1082 1081
3 1046 1047 1083
3 1046 1083 1082
3 1047 1048 1084
3 1047 1084 1083
3 1048 1049 1085
3 1048 1085 1084
3 1049 1050 1086
3 1049 1086 1085
3 1050 1051 1087
3 1050 1087 1086
3 1051 1052 1088
3 1051 1088 1087
3 1052 1053 1089
3 1052 1089 1088
3 1053 68 69
3 1053 69 1089
3 28 1054 1090
3 28 1090 29
3 1054 1055 1091
3 1054 1091 1090
3 1055 1056 1092
3 1055 1092 1091
3 1056 1057 1093
3 1056 1093 1092
3 1057 1058 1094
3 1057 1094 1093
3 1058 1059 1095
3 1058 1095 1094
3 1059 1060 1096
3 1059 1096 1095
3 1060 1061 1097
3 1060 1097 1096
3 1061 1062 1098
3 1061 1098 1097
3 1062 1063 1099
3 1062 1099 1098
3 1063 1064 1100
3 1063 1100 1099
3 1064 1065 1101
3 1064 1101 1100
3 1065 1066 1102
3 1065 1102 1101
3 1066 1067 1103
3 1066 1103 1102
3 1067 1068 1104
3 1067 1104 1103
3 1068 1069 1105
3 1068 1105 1104
3 1069 1070 1106
3 1069 1106 1105
3 1070 1071 1107
3 1070 1107 1106
3 1071 1072 1108
3 1071 1108 1107
3 1072 1073 1109
3 1072 1109 1108
3 1073 1074 1110
3 1073 1110 1109
3 1074 1075 1111
3 1074 1111 1110
3 1075 1076 1112
3 1075 1112 1111
3 1076 1077 1113
3 1076 1113 1112
3 1077 1078 1114
3 1077 1114 1113
3 1078 1079 1115
3 1078 1115 1114
3 1079 1080 1116
3 1079 1116 1115
3 1080 1081 1117
3 1080 1117 1116
3 1081 1082 1118
3 1081 1118 1117
3 1082 1083 1119
3 1082 1119 1118
3 1083 1084 1120
3 1083 1120 1119
3 1084 1085 1121
3 1084 1121 1120
3 1085 1086 1122
3 1085 1122 1121
3 1086 1087 1123
3 1086 1123 1122
3 1087 1088 1124
3 1087 1124 1123
3 1088 1089 1125
3 1088 1125 1124
3 1089 69 70
3 1089 70 1125
3 29 1090 1126
3 29 1126 30
3 1090 1091 1127
3 1090 1127 1126
3 1091 1092 1128
3 1091 1128 1127
3 1092 1093 1129
3 1092 1129 1128
3 1093 1094 1130
3 1093 1130 1129
3 1094 1095 1131
3 1094 1131 1130
3 1095 1096 1132
3 1095 1132 1131
3 1096 1097 1133
3 1096 1133 1132
3 1097 1098 1134
3 1097 1134 1133
3 1098 1099 1135
3 1098 1135 1134
3 1099 1100 1136
3 1099 1136 1135
3 1100 1101 1137
3 1100 1137 1136
3 1101 1102 1138
3 1101 1138 1137
3 1102 1103 1139
3 1102 1139 1138
3 1103 1104 1140
3 1103 1140 1139
3 1104 1105 1141
3 1104 1141 1140
3 1105 1106 1142
3 1105 1142 1141
3 1106 1107 1143
3 1106 1143 1142
3 1107 1108 1144
3 1107 1144 1143
3 1108 1109 1145
3 1108 1145 1144
3 1109 1110 1146
3 1109 1146 1145
3 1110 1111 1147
3 1110 1147 1146
3 1111 1112 1148
3 1111 1148 1147
3 1112 1113 1149
3 1112 1149 1148
3 1113 1114 1150
3 1113 1150 1149
3 1114 1115 1151
3 1114 1151 1150
3 1115 1116 1152
3 1115 1152 1151
3 1116 1117 1153
3 1116 1153 1152
3 1117 1118 1154
3 1117 1154 1153
3 1118 1119 1155
3 1118 1155 1154
3 1119 1120 1156
3 1119 1156 1155
3 1120 1121 1157
3 1120 1157 1156
3 1121 1122 1158
3 1121 1158 1157
3 1122 1123 1159
3 1122 1159 1158
3 1123 1124 1160
3 1123 1160 1159
3 1124 1125 1161
3 1124 1161 1160
3 1125 70 71
3 1125 71 1161
3 30 1126 1162
3 30 1162 31
3 1126 1127 1163
3 1126 1163 1162
3 1127 1128 1164
3 1127 1164 1163
3 1128 1129 1165
3 1128 1165 1164
3 1129 1130 1166
3 1129 1166 1165
3 1130 1131 1167
3 1130 1167 1166
3 1131 1132 1168
3 1131 1168 1167
3 1132 1133 1169
3 1132 1169 1168
3 1133 1134 1170
3 1133 1170 1169
3 1134 1135 1171
3 1134 1171 1170
3 1135 1136 1172
3 1135 1172 1171
3 1136 1137 1173
3 1136 1173 1172
3 1137 1138 1174
3 1137 1174 1173
3 1138 1139 1175
3 1138 1175 1174
3 1139 1140 1176
3 1139 1176 1175
3 1140 1141 1177
3 1140 1177 1176
3 1141 1142 1178
3 1141 1178 1177
3 1142 1143 1179
3 1142 1179 1178
3 1143 1144 1180
3 1143 1180 1179
3 1144 1145 1181
3 1144 1181 1180
3 1145 1146 1182
3 1145 1182 1181
3 1146 1147 1183
3 1146 1183 1182
3 1147 1148 1184
3 1147 1184 1183
3 1148 1149 1185
3 1148 1185 1184
3 1149 1150 1186
3 1149 1186 1185
3 1150 1151 1187
3 1150 1187 1186
3 1151 1152 1188
3 1151 1188 1187
3 1152 1153 1189
3 1152 1189 1188
3 1153 1154 1190
3 1153 1190 1189
3 1154 1155 1191
3 1154 1191 1190
3 1155 1156 1192
3 1155 1192 1191
3 1156 1157 1193
3 1156 1193 1192
3 1157 1158 1194
3 1157 1194 1193
3 1158 1159 1195
3 1158 1195 1194
3 1159 1160 1196
3 1159 1196 1195
3 1160 1161 1197
3 1160 1197 1196
3 1161 71 72
3 1161 72 1197
3 31 1162 1198
3 31 1198 32
3 1162 1163 1199
3 1162 1199 1198
3 1163 1164 1200
3 1163 1200 1199
3 1164 1165 1201
3 1164 1201 1200
3 1165 1166 1202
3 1165 1202 1201
3 1166 1167 1203
3 1166 1203 1202
3 1167 1168 1204
3 1167 1204 1203
3 1168 1169 1205
3 1168 1205 1204
3 1169 1170 1206
3 1169 1206 1205
3 1170 1171 1207
3 1170 1207 1206
3 1171 1172 1208
3 1171 1208 1207
3 1172 1173 1209
3 1172 1209 1208
3 1173 1174 1210
3 1173 1210 1209
3 1174 1175 1211
3 1174 1211 1210
3 1175 1176 1212
3 1175 1212 1211
3 1176 1177 1213
3 1176 1213 1212
3 1177 1178 1214
3 1177 1214 1213
3 1178 1179 1215
3 1178 1215 1214
3 1179 1180 1216
3 1179 1216 1215
3 1180 1181 1217
3 1180 1217 1216
3 1181 1182 1218
3 1181 1218 1217
3 1182 1183 1219
3 1182 1219 1218
3 1183 1184 1220
3 1183 1220 1219
3 1184 1185 1221
3 1184 1221 1220
3 1185 1186 1222
3 1185 1222 1221
3 1186 1187 1223
3 1186 1223 1222
3 1187 1188 1224
3 1187 1224 1223
3 1188 1189 1225
3 1188 1225 1224
3 1189 1190 1226
3 1189 1226 1225
3 1190 1191 1227
3 1190 1227 1226
3 1191 1192 1228
3 1191 1228 1227
3 1192 1193 1229
3 1192 1229 1228
3 1193 1194 1230
3 1193 1230 1229
3 1194 1195 1231
3 1194 1231 1230
3 1195 1196 1232
3 1195 1232 1231
3 1196 1197 1233
3 1196 1233 1232
3 1197 72 73
3 1197 73 1233
3 32 1198 1234
3 32 1234 33
3 1198 1199 1235
3 1198 1235 1234
3 1199 1200 1236
3 1199 1236 1235
3 1200 1201 1237
3 1200 1237 1236
3 1201 1202 1238
3 1201 1238 1237
3 1202 1203 1239
3 1202 1239 1238
3 1203 1204 1240
3 1203 1240 1239
3 1204 1205 1241
3 1204 1241 1240
3 1205 1206 1242
3 1205 1242 1241
3 1206 1207 1243
3 1206 1243 1242
3 1207 1208 1244
3 1207 1244 1243
3 1208 1209 1245
3 1208 1245 1244
3 1209 1210 1246
3 1209 1246 1245
3 1210 1211 1247
3 1210 1247 1246
3 1211 1212 1248
3 1211 1248 1247
3 1212 1213 1249
3 1212 1249 1248
3 1213 1214 1250
3 1213 1250 1249
3 1214 1215 1251
3 1214 1251 1250
3 1215 1216 1252
3 1215 1252 1251
3 1216 1217 1253
3 1216 1253 1252
3 1217 1218 1254
3 1217 1254 1253
3 1218 1219 1255
3 1218 1255 1254
3 1219 1220 1256
3 1219 1256 1255
3 1220 1221 1257
3 1220 1257 1256
3 1221 1222 1258
3 1221 1258 1257
3 1222 1223 1259
3 1222 1259 1258
3 1223 1224 1260
3 1223 1260 1259
3 1224 1225 1261
3 1224 1261 1260
3 1225 1226 1262
3 1225 1262 1261
3 1226 1227 1263
3 1226 1263 1262
3 1227 1228 1264
3 1227 1264 1263
3 1228 1229 1265
3 1228 1265 1264
3 1229 1230 1266
3 1229 1266 1265
3 1230 1231 1267
3 1230 1267 1266
3 1231 1232 1268
3 1231 1268 1267
3 1232 1233 1269
3 1232 1269 1268
3 1233 73 74
3 1233 74 1269
3 33 1234 1270
3 33 1270 34
3 1234 1235 1271
3 1234 1271 1270
3 1235 1236 1272
3 1235 1272 1271
3 1236 1237 1273
3 1236 1273 1272
3 1237 1238 1274
3 1237 1274 1273
3 1238 1239 1275
3 1238 1275 1274
3 1239 1240 1276
3 1239 1276 1275
3 1240 1241 1277
3 1240 1277 1276
3 1241 1242 1278
3 1241 1278 1277
3 1242 1243 1279
3 1242 1279 1278
3 1243 1244 1280
3 1243 1280 1279
3 1244 1245 1281
3 1244 1281 1280
3 1245 1246 1282
3 1245 1282 1281
3 1246 1247 1283
3 1246 1283 1282
3 1247 1248 1284
3 1247 1284 1283
3 1248 1249 1285
3 1248 1285 1284
3 1249 1250 1286
3 1249 1286 1285
3 1250 1251 1287
3 1250 1287 1286
3 1251 1252 1288
3 1251 1288 1287
3 1252 1253 1289
3 1252 1289 1288
3 1253 1254 1290
3 1253 1290 1289
3 1254 1255 1291
3 1254 1291 1290
3 1255 1256 1292
3 1255 1292 1291
3 1256 1257 1293
3 1256 1293 1292
3 1257 1258 1294
3 1257 1294 1293
3 1258 1259 1295
3 1258 1295 1294
3 1259 1260 1296
3 1259 1296 1295
3 1260 1261 1297
3 1260 1297 1296
3 1261 1262 1298
3 1261 1298 1297
3 1262 1263 1299
3 1262 1299 1298
3 1263 1264 1300
3 1263 1300 1299
3 1264 1265 1301
3 1264 1301 1300
3 1265 1266 1302
3 1265 1302 1301
3 1266 1267 1303
3 1266 1303 1302
3 1267 1268 1304
3 1267 1304 1303
3 1268 1269 1305
3 1268 1305 1304
3 1269 74 75
3 1269 75 1305
3 34 1270 1306
3 34 1306 35
3 1270 1271 1307
3 1270 1307 1306
3 1271 1272 1308
3 1271 1308 1307
3 1272 1273 1309
3 1272 1309 1308
3 1273 1274 1310
3 1273 1310 1309
3 1274 1275 1311
3 1274 1311 1310
3 1275 1276 1312
3 1275 1312 1311
3 1276 1277 1313
3 1276 1313 1312
3 1277 1278 1314
3 1277 1314 1313
3 1278 1279 1315
3 1278 1315 1314
3 1279 1280 1316
3 1279 1316 1315
3 1280 1281 1317
3 1280 1317 1316
3 1281 1282 1318
3 1281 1318 1317
3 1282 1283 1319
3 1282 1319 1318
3 1283 1284 1320
3 1283 1320 1319
3 1284 1285 1321
3 1284 1321 1320
3 1285 1286 1322
3 1285 1322 1321
3 1286 1287 1323
3 1286 1323 1322
3 1287 1288 1324
3 1287 1324 1323
3 1288 1289 1325
3 1288 1325 1324
3 1289 1290 1326
3 1289 1326 1325
3 1290 1291 1327
3 1290 1327 1326
3 1291 1292 1328
3 1291 1328 1327
3 1292 1293 1329
3 1292 1329 1328
3 1293 1294 1330
3 1293 1330 1329
3 1294 1295 1331
3 1294 1331 1330
3 1295 1296 1332
3 1295 1332 1331
3 1296 1297 1333
3 1296 1333 1332
3 1297 1298 1334
3 1297 1334 1333
3 1298 1299 1335
3 1298 1335 1334
3 1299 1300 1336
3 1299 1336 1335
3 1300 1301 1337
3 1300 1337 1336
3 1301 1302 1338
3 1301 1338 1337
3 1302 1303 1339
3 1302 1339 1338
3 1303 1304 1340
3 1303 1340 1339
3 1304 1305 1341
3 1304 1341 1340
3 1305 75 76
3 1305 76 1341
3 35 1306 1342
3 35 1342 36
3 1306 1307 1343
3 1306 1343 1342
3 1307 1308 1344
3 1307 1344 1343
3 1308 1309 1345
3 1308 1345 1344
3 1309 1310 1346
3 1309 1346 1345
3 1310 1311 1347
3 1310 1347 1346
3 1311 1312 1348
3 1311 1348 1347
3 1312 1313 1349
3 1312 1349 1348
3 1313 1314 1350
3 1313 1350 1349
3 1314 1315 1351
3 1314 1351 1350
3 1315 1316 1352
3 1315 1352 1351
3 1316 1317 1353
3 1316 1353 1352
3 1317 1318 1354
3 1317 1354 1353
3 1318 1319 1355
3 1318 1355 1354
3 1319 1320 1356
3 1319 1356 1355
3 1320 1321 1357
3 1320 1357 1356
3 1321 1322 1358
3 1321 1358 1357
3 1322 1323 1359
3 1322 1359 1358
3 1323 1324 1360
3 1323 1360 1359
3 1324 1325 1361
3 1324 1361 1360
3 1325 1326 1362
3 1325 1362 1361
3 1326 1327 1363
3 1326 1363 1362
3 1327 1328 1364
3 1327 1364 1363
3 1328 1329 1365
3 1328 1365 1364
3 1329 1330 1366
3 1329 1366 1365
3 1330 1331 1367
3 1330 1367 1366
3 1331 1332 1368
3 1331 1368 1367
3 1332 1333 1369
3 1332 1369 1368
3 1333 1334 1370
3 1333 1370 1369
3 1334 1335 1371
3 1334 1371 1370
3 1335 1336 1372
3 1335 1372 1371
3 1336 1337 1373
3 1336 1373 1372
3 1337 1338 1374
3 1337 1374 1373
3 1338 1339 1375
3 1338 1375 1374
3 1339 1340 1376
3 1339 1376 1375
3 1340 1341 1377
3 1340 1377 1376
3 1341 76 77
3 1341 77 1377
3 36 1342 1378
3 36 1378 37
3 1342 1343 1379
3 1342 1379 1378
3 1343 1344 1380
3 1343 1380 1379
3 1344 1345 1381
3 1344 1381 1380
3 1345 1346 1382
3 1345 1382 1381
3 1346 1347 1383
3 1346 1383 1382
3 1347 1348 1384
3 1347 1384 1383
3 1348 1349 1385
3 1348 1385 1384
3 1349 1350 1386
3 1349 1386 1385
3 1350 1351 1387
3 1350 1387 1386
3 1351 1352 1388
3 1351 1388 1387
3 1352 1353 1389
3 1352 1389 1388
3 1353 1354 1390
3 1353 1390 1389
3 1354 1355 1391
3 1354 1391 1390
3 1355 1356 1392
3 1355 1392 1391
3 1356 1357 1393
3 1356 1393 1392
3 1357 1358 1394
3 1357 1394 1393
3 1358 1359 1395
3 1358 1395 1394
3 1359 1360 1396
3 1359 1396 1395
3 1360 1361 1397
3 1360 1397 1396
3 1361 1362 1398
3 1361 1398 1397
3 1362 1363 1399
3 1362 1399 1398
3 1363 1364 1400
3 1363 1400 1399
3 1364 1365 1401
3 1364 1401 1400
3 1365 1366 1402
3 1365 1402 1401
3 1366 1367 1403
3 1366 1403 1402
3 1367 1368 1404
3 1367 1404 1403
3 1368 1369 1405
3 1368 1405 1404
3 1369 1370 1406
3 1369 1406 1405
3 1370 1371 1407
3 1370 1407 1406
3 1371 1372 1408
3 1371 1408 1407
3 1372 1373 1409
3 1372 1409 1408
3 1373 1374 1410
3 1373 1410 1409
3 1374 1375 1411
3 1374 1411 1410
3 1375 1376 1412
3 1375 1412 1411
3 1376 1377 1413
3 1376 1413 1412
3 1377 77 78
3 1377 78 1413
3 37 1378 1414
3 37 1414 38
3 1378 1379 1415
3 1378 1415 1414
3 1379 1380 1416
3 1379 1416 1415
3 1380 1381 1417
3 1380 1417 1416
3 1381 1382 1418
3 1381 1418 1417
3 1382 1383 1419
3 1382 1419 1418
3 1383 1384 1420
3 1383 1420 1419
3 1384 1385 1421
3 1384 1421 1420
3 1385 1386 1422
3 1385 1422 1421
3 1386 1387 1423
3 1386 1423 1422
3 1387 1388 1424
3 1387 1424 1423
3 1388 1389 1425
3 1388 1425 1424
3 1389 1390 1426
3 1389 1426 1425
3 1390 1391 1427
3 1390 1427 1426
3 1391 1392 1428
3 1391 1428 1427
3 1392 1393 1429
3 1392 1429 1428
3 1393 1394 1430
3 1393 1430 1429
3 1394 1395 1431
3 1394 1431 1430
3 1395 1396 1432
3 1395 1432 1431
3 1396 1397 1433
3 1396 1433 1432
3 1397 1398 1434
3 1397 1434 1433
3 1398 1399 1435
3 1398 1435 1434
3 1399 1400 1436
3 1399 1436 1435
3 1400 1401 1437
3 1400 1437 1436
3 1401 1402 1438
3 1401 1438 1437
3 1402 1403 1439
3 1402 1439 1438
3 1403 1404 1440
3 1403 1440 1439
3 1404 1405 1441
3 1404 1441 1440
3 1405 1406 1442
3 1405 1442 1441
3 1406 1407 1443
3 1406 1443 1442
3 1407 1408 1444
3 1407 1444 1443
3 1408 1409 1445
3 1408 1445 1444
3 1409 1410 1446
3 1409 1446 1445
3 1410 1411 1447
3 1410 1447 1446
3 1411 1412 1448
3 1411 1448 1447
3 1412 1413 1449
3 1412 1449 1448
3 1413 78 79
3 1413 79 1449
3 38 1414 1450
3 38 1450 39
3 1414 1415 1451
3 1414 1451 1450
3 1415 1416 1452
3 1415 1452 1451
3 1416 1417 1453
3 1416 1453 1452
3 1417 1418 1454
3 1417 1454 1453
3 1418 1419 1455
3 1418 1455 1454
3 1419 1420 1456
3 1419 1456 1455
3 1420 1421 1457
3 1420 1457 1456
3 1421 1422 1458
3 1421 1458 1457
3 1422 1423 1459
3 1422 1459 1458
3 1423 1424 1460
3 1423 1460 1459
3 1424 1425 1461
3 1424 1461 1460
3 1425 1426 1462
3 1425 1462 1461
3 1426 1427 1463
3 1426 1463 1462
3 1427 1428 1464
3 1427 1464 1463
3 1428 1429 1465
3 1428 1465 1464
3 1429 1430 1466
3 1429 1466 1465
3 1430 1431 1467
3 1430 1467 1466
3 1431 1432 1468
3 1431 1468 1467
3 1432 1433 1469
3 1432 1469 1468
3 1433 1434 1470
3 1433 1470 1469
3 1434 1435 1471
3 1434 1471 1470
3 1435 1436 1472
3 1435 1472 1471
3 1436 1437 1473
3 1436 1473 1472
3 1437 1438 1474
3 1437 1474 1473
3 1438 1439 1475
3 1438 1475 1474
3 1439 1440 1476
3 1439 1476 1475
3 1440 1441 1477
3 1440 1477 1476
3 1441 1442 1478
3 1441 1478 1477
3 1442 1443 1479
3 1442 1479 1478
3 1443 1444 1480
3 1443 1480 1479
3 1444 1445 1481
3 1444 1481 1480
3 1445 1446 1482
3 1445 1482 1481
3 1446 1447 1483
3 1446 1483 1482
3 1447 1448 1484
3 1447 1484 1483
3 1448 1449 1485
3 1448 1485 1484
3 1449 79 80
3 1449 80 1485
3 39 1450 1486
3 39 1486 40
3 1450 1451 1487
3 1450 1487 1486
3 1451 1452 1488
3 1451 1488 1487
3 1452 1453 1489
3 1452 1489 1488
3 1453 1454 1490
3 1453 1490 1489
3 1454 1455 1491
3 1454 1491 1490
3 1455 1456 1492
3 1455 1492 1491
3 1456 1457 1493
3 1456 1493 1492
3 1457 1458 1494
3 1457 1494 1493
3 1458 1459 1495
3 1458 1495 1494
3 1459 1460 1496
3 1459 1496 1495
3 1460 1461 1497
3 1460 1497 1496
3 1461 1462 1498
3 1461 1498 1497
3 1462 1463 1499
3 1462 1499 1498
3 1463 1464 1500
3 1463 1500 1499
3 1464 1465 1501
3 1464 1501 1500
3 1465 1466 1502
3 1465 1502 1501
3 1466 1467 1503
3 1466 1503 1502
3 1467 1468 1504
3 1467 1504 1503
3 1468 1469 1505
3 1468 1505 1504
3 1469 1470 1506
3 1469 1506 1505
3 1470 1471 1507
3 1470 1507 1506
3 1471 1472 1508
3 1471 1508 1507
3 1472 1473 1509
3 1472 1509 1508
3 1473 1474 1510
3 1473 1510 1509
3 1474 1475 1511
3 1474 1511 1510
3 1475 1476 1512
3 1475 1512 1511
3 1476 1477 1513
3 1476 1513 1512
3 1477 1478 1514
3 1477 1514 1513
3 1478 1479 1515
3 1478 1515 1514
3 1479 1480 1516
3 1479 1516 1515
3 1480 1481 1517
3 1480 1517 1516
3 1481 1482 1518
3 1481 1518 1517
3 1482 1483 1519
3 1482 1519 1518
3 1483 1484 1520
3 1483 1520 1519
3 1484 1485 1521
3 1484 1521 1520
3 1485 80 81
3 1485 81 1521
3 40 1486 82
3 40 82 0
3 1486 1487 84
3 1486 84 82
3 1487 1488 86
3 1487 86 84
3 1488 1489 88
3 1488 88 86
3 1489 1490 90
3 1489 90 88
3 1490 1491 92
3 1490 92 90
3 1491 1492 94
3 1491 94 92
3 1492 1493 96
3 1492 96 94
3 1493 1494 98
3 1493 98 96
3 1494 1495 100
3 1494 100 98
3 1495 1496 102
3 1495 102 100
3 1496 1497 104
3 1496 104 102
3 1497 1498 106
3 1497 106 104
3 1498 1499 108
3 1498 108 106
3 1499 1500 110
3 1499 110 108
3 1500 1501 112
3 1500 112 110
3 1501 1502 114
3 1501 114 112
3 1502 1503 116
3 1502 116 114
3 1503 1504 118
3 1503 118 116
3 1504 1505 120
3 1504 120 118
3 1505 1506 122
3 1505 122 120
3 1506 1507 124
3 1506 124 122
3 1507 1508 126
3 1507 126 124
3 1508 1509 128
3 1508 128 126
3 1509 1510 130
3 1509 130 128
3 1510 1511 132
3 1510 132 130
3 1511 1512 134
3 1511 134 132
3 1512 1513 136
3 1512 136 134
3 1513 1514 138
3 1513 138 136
3 1514 1515 140
3 1514 140 138
3 1515 1516 142
3 1515 142 140
3 1516 1517 144
3 1516 144 142
3 1517 1518 146
3 1517 146 144
3 1518 1519 148
3 1518 148 146
3 1519 1520 150
3 1519 150 148
3 1520 1521 152
3 1520 152 150
3 1521 81 41
3 1521 41 152
