<svg xmlns="http://www.w3.org/2000/svg" viewBox="0 0 860 420" width="860" height="420" font-family="Inter, 'Helvetica Neue', Helvetica, Arial, sans-serif" role="img" aria-label="Anatomy of a two-realm forest">
<title>Anatomy of a two-realm forest</title>
<defs>
<pattern id="hatch" width="6" height="6" patternUnits="userSpaceOnUse" patternTransform="rotate(45)"><rect width="6" height="6" fill="#F5F7FA" fill-opacity="0.7"/><line x1="0" y1="0" x2="0" y2="6" stroke="#7B8794" stroke-width="1.1" stroke-opacity="0.55"/></pattern>
<marker id="arr" viewBox="0 0 10 10" refX="9" refY="5" markerWidth="7" markerHeight="7" orient="auto-start-reverse"><path d="M0,0 L10,5 L0,10 z" fill="#1F2933"/></marker>
<marker id="arrA" viewBox="0 0 10 10" refX="9" refY="5" markerWidth="7" markerHeight="7" orient="auto-start-reverse"><path d="M0,0 L10,5 L0,10 z" fill="#2F6DB5"/></marker>
<marker id="arrB" viewBox="0 0 10 10" refX="9" refY="5" markerWidth="7" markerHeight="7" orient="auto-start-reverse"><path d="M0,0 L10,5 L0,10 z" fill="#D9731F"/></marker>
<marker id="arrS" viewBox="0 0 10 10" refX="9" refY="5" markerWidth="7" markerHeight="7" orient="auto-start-reverse"><path d="M0,0 L10,5 L0,10 z" fill="#C0392B"/></marker>
<marker id="arrR" viewBox="0 0 10 10" refX="9" refY="5" markerWidth="7" markerHeight="7" orient="auto-start-reverse"><path d="M0,0 L10,5 L0,10 z" fill="#6B3FA0"/></marker>
<marker id="arrG" viewBox="0 0 10 10" refX="9" refY="5" markerWidth="7" markerHeight="7" orient="auto-start-reverse"><path d="M0,0 L10,5 L0,10 z" fill="#2E8540"/></marker>
</defs>
<rect x="1" y="1" width="858" height="418" rx="12" fill="#FFFFFF" stroke="#D9E2EC" stroke-width="1.5"/>
<text x="430.0" y="34.0" font-size="17" fill="#1F2933" text-anchor="middle" font-weight="bold" xml:space="preserve">A forest: two realms glued at an inter-realm seam</text>
<rect x="70.0" y="80.0" width="280.0" height="280.0" rx="0.0" fill="#DCE8F7" stroke="none" stroke-width="1.0"/>
<line x1="140.0" y1="80.0" x2="140.0" y2="360.0" stroke="#9AA5B1" stroke-width="0.6"/>
<line x1="210.0" y1="80.0" x2="210.0" y2="360.0" stroke="#9AA5B1" stroke-width="0.6"/>
<line x1="280.0" y1="80.0" x2="280.0" y2="360.0" stroke="#9AA5B1" stroke-width="0.6"/>
<line x1="70.0" y1="150.0" x2="350.0" y2="150.0" stroke="#9AA5B1" stroke-width="0.6"/>
<line x1="70.0" y1="220.0" x2="350.0" y2="220.0" stroke="#9AA5B1" stroke-width="0.6"/>
<line x1="70.0" y1="290.0" x2="350.0" y2="290.0" stroke="#9AA5B1" stroke-width="0.6"/>
<rect x="70.0" y="80.0" width="280.0" height="280.0" rx="0.0" fill="none" stroke="#2F6DB5" stroke-width="2.4"/>
<rect x="350.0" y="80.0" width="280.0" height="280.0" rx="0.0" fill="#FCE6D3" stroke="none" stroke-width="1.0"/>
<line x1="420.0" y1="80.0" x2="420.0" y2="360.0" stroke="#9AA5B1" stroke-width="0.6"/>
<line x1="490.0" y1="80.0" x2="490.0" y2="360.0" stroke="#9AA5B1" stroke-width="0.6"/>
<line x1="560.0" y1="80.0" x2="560.0" y2="360.0" stroke="#9AA5B1" stroke-width="0.6"/>
<line x1="350.0" y1="150.0" x2="630.0" y2="150.0" stroke="#9AA5B1" stroke-width="0.6"/>
<line x1="350.0" y1="220.0" x2="630.0" y2="220.0" stroke="#9AA5B1" stroke-width="0.6"/>
<line x1="350.0" y1="290.0" x2="630.0" y2="290.0" stroke="#9AA5B1" stroke-width="0.6"/>
<rect x="350.0" y="80.0" width="280.0" height="280.0" rx="0.0" fill="none" stroke="#D9731F" stroke-width="2.4"/>
<line x1="140.0" y1="80.0" x2="140.0" y2="360.0" stroke="#2F6DB5" stroke-width="1.4"/>
<line x1="70.0" y1="150.0" x2="350.0" y2="150.0" stroke="#2F6DB5" stroke-width="1.4"/>
<line x1="420.0" y1="80.0" x2="420.0" y2="360.0" stroke="#D9731F" stroke-width="1.4"/>
<line x1="350.0" y1="150.0" x2="630.0" y2="150.0" stroke="#D9731F" stroke-width="1.4"/>
<line x1="210.0" y1="80.0" x2="210.0" y2="360.0" stroke="#2F6DB5" stroke-width="1.4"/>
<line x1="70.0" y1="220.0" x2="350.0" y2="220.0" stroke="#2F6DB5" stroke-width="1.4"/>
<line x1="490.0" y1="80.0" x2="490.0" y2="360.0" stroke="#D9731F" stroke-width="1.4"/>
<line x1="350.0" y1="220.0" x2="630.0" y2="220.0" stroke="#D9731F" stroke-width="1.4"/>
<line x1="280.0" y1="80.0" x2="280.0" y2="360.0" stroke="#2F6DB5" stroke-width="1.4"/>
<line x1="70.0" y1="290.0" x2="350.0" y2="290.0" stroke="#2F6DB5" stroke-width="1.4"/>
<line x1="560.0" y1="80.0" x2="560.0" y2="360.0" stroke="#D9731F" stroke-width="1.4"/>
<line x1="350.0" y1="290.0" x2="630.0" y2="290.0" stroke="#D9731F" stroke-width="1.4"/>
<line x1="291.7" y1="80.0" x2="291.7" y2="150.0" stroke="#9BBCE3" stroke-width="0.7"/>
<line x1="303.3" y1="80.0" x2="303.3" y2="150.0" stroke="#9BBCE3" stroke-width="0.7"/>
<line x1="315.0" y1="80.0" x2="315.0" y2="150.0" stroke="#9BBCE3" stroke-width="0.7"/>
<line x1="326.7" y1="80.0" x2="326.7" y2="150.0" stroke="#9BBCE3" stroke-width="0.7"/>
<line x1="338.3" y1="80.0" x2="338.3" y2="150.0" stroke="#9BBCE3" stroke-width="0.7"/>
<line x1="280.0" y1="91.7" x2="350.0" y2="91.7" stroke="#9BBCE3" stroke-width="0.7"/>
<line x1="280.0" y1="103.3" x2="350.0" y2="103.3" stroke="#9BBCE3" stroke-width="0.7"/>
<line x1="280.0" y1="115.0" x2="350.0" y2="115.0" stroke="#9BBCE3" stroke-width="0.7"/>
<line x1="280.0" y1="126.7" x2="350.0" y2="126.7" stroke="#9BBCE3" stroke-width="0.7"/>
<line x1="280.0" y1="138.3" x2="350.0" y2="138.3" stroke="#9BBCE3" stroke-width="0.7"/>
<line x1="501.7" y1="290.0" x2="501.7" y2="360.0" stroke="#F2B88A" stroke-width="0.7"/>
<line x1="513.3" y1="290.0" x2="513.3" y2="360.0" stroke="#F2B88A" stroke-width="0.7"/>
<line x1="525.0" y1="290.0" x2="525.0" y2="360.0" stroke="#F2B88A" stroke-width="0.7"/>
<line x1="536.7" y1="290.0" x2="536.7" y2="360.0" stroke="#F2B88A" stroke-width="0.7"/>
<line x1="548.3" y1="290.0" x2="548.3" y2="360.0" stroke="#F2B88A" stroke-width="0.7"/>
<line x1="490.0" y1="301.7" x2="560.0" y2="301.7" stroke="#F2B88A" stroke-width="0.7"/>
<line x1="490.0" y1="313.3" x2="560.0" y2="313.3" stroke="#F2B88A" stroke-width="0.7"/>
<line x1="490.0" y1="325.0" x2="560.0" y2="325.0" stroke="#F2B88A" stroke-width="0.7"/>
<line x1="490.0" y1="336.7" x2="560.0" y2="336.7" stroke="#F2B88A" stroke-width="0.7"/>
<line x1="490.0" y1="348.3" x2="560.0" y2="348.3" stroke="#F2B88A" stroke-width="0.7"/>
<rect x="350.0" y="80.0" width="35.0" height="280.0" rx="0.0" fill="url(#hatch)" stroke="#7B8794" stroke-width="1.0" stroke-dasharray="4 3"/>
<line x1="350.0" y1="66.0" x2="350.0" y2="374.0" stroke="#C0392B" stroke-width="3.4"/>
<text x="350.0" y="60.0" font-size="13" fill="#C0392B" text-anchor="middle" font-weight="bold" xml:space="preserve">seam</text>
<text x="210.0" y="388.0" font-size="14" fill="#2F6DB5" text-anchor="middle" font-weight="bold" xml:space="preserve">realm 1  (realm_a, face_a = +x)</text>
<text x="490.0" y="388.0" font-size="14" fill="#D9731F" text-anchor="middle" font-weight="bold" xml:space="preserve">realm 2  (realm_b, face_b = -x)</text>
<text x="210.0" y="407.0" font-size="12" fill="#52606D" text-anchor="middle" font-weight="normal" xml:space="preserve">its own INI: grid, numerics, physics</text>
<text x="490.0" y="407.0" font-size="12" fill="#52606D" text-anchor="middle" font-weight="normal" xml:space="preserve">its own INI, its own rank partition</text>
<line x1="315.0" y1="115.0" x2="252.0" y2="54.0" stroke="#52606D" stroke-width="1" marker-end="url(#arr)"/>
<text x="248.0" y="50.0" font-size="12" fill="#52606D" text-anchor="end" font-weight="normal" xml:space="preserve">block: ni x nj x nk cells (one shown)</text>
<text x="648.0" y="150.0" font-size="12" fill="#52606D" text-anchor="start" font-weight="normal" xml:space="preserve">ghost slab of realm 1:</text>
<text x="648.0" y="167.0" font-size="12" fill="#52606D" text-anchor="start" font-weight="normal" xml:space="preserve">ngc cells beyond its</text>
<text x="648.0" y="184.0" font-size="12" fill="#52606D" text-anchor="start" font-weight="normal" xml:space="preserve">seam face, filled from</text>
<text x="648.0" y="201.0" font-size="12" fill="#52606D" text-anchor="start" font-weight="normal" xml:space="preserve">realm 2 interior cells</text>
<text x="648.0" y="218.0" font-size="12" fill="#52606D" text-anchor="start" font-weight="normal" xml:space="preserve">(realm 2 has its own,</text>
<text x="648.0" y="235.0" font-size="12" fill="#52606D" text-anchor="start" font-weight="normal" xml:space="preserve">over realm 1)</text>
<line x1="644.0" y1="180.0" x2="388.0" y2="178.0" stroke="#52606D" stroke-width="1" marker-end="url(#arr)"/>
</svg>
